<svg width="235" height="95" viewBox="0 0 235 95" fill="none" xmlns="http://www.w3.org/2000/svg">
<path d="M232.829 88.6175C233.848 88.51 234.587 87.5967 234.48 86.5776L232.727 69.9698C232.62 68.9506 231.707 68.2116 230.687 68.3191C229.668 68.4266 228.929 69.34 229.037 70.3591L230.594 85.1216L215.832 86.679C214.813 86.7865 214.074 87.6998 214.181 88.719C214.289 89.7381 215.202 90.4771 216.221 90.3696L232.829 88.6175ZM3.3969 94.1513C30.9755 47.2968 57.1581 22.2696 81.2027 11.2199C105.148 0.215803 127.21 2.96783 146.915 12.2434C166.695 21.5541 184.062 37.4282 198.39 52.5832C205.548 60.1549 211.906 67.5005 217.432 73.7425C222.915 79.9347 227.652 85.1276 231.467 88.2147L233.801 85.3297C230.273 82.4749 225.748 77.5365 220.211 71.2825C214.718 65.0784 208.299 57.663 201.086 50.0337C186.672 34.7869 168.918 18.4991 148.496 8.88567C127.998 -0.762927 104.776 -3.69728 79.653 7.84784C54.6293 19.3475 27.9594 45.1051 0.198686 92.2689L3.3969 94.1513Z" fill="#FF497C"/>
</svg>
