<svg width="193" height="129" viewBox="0 0 193 129" fill="none" xmlns="http://www.w3.org/2000/svg">
<path d="M75.7301 111.569C76.8695 110.949 77.9968 109.945 79.1423 109.768C89.2693 108.291 99.4268 107.598 109.523 105.398C117.432 103.671 125.293 100.437 133.141 97.3372C142.147 93.7793 151.207 90.62 160.067 85.4973C168.146 80.8174 176.318 76.0194 183.672 65.8772C184.58 64.6224 185.476 63.3232 186.347 61.9355C191.088 54.3473 189.899 45.0023 186.438 38.0194C181.972 29.014 176.464 25.338 170.925 22.1196C160.396 15.993 149.69 12.8337 138.905 10.8997C120.57 7.62235 102.242 7.19422 83.8768 9.46773C67.8272 11.446 51.942 16.2883 36.191 23.7141C27.9956 27.582 19.8732 32.498 12.3603 41.6068C9.86812 44.6332 7.5405 48.8555 5.4627 53.4025C2.89135 59.042 3.07414 66.2611 5.4566 72.4911C9.4355 82.899 14.7001 88.2284 19.8854 93.7203C29.5371 103.936 39.6337 110.919 49.9191 116.116C55.8112 119.083 61.8009 120.884 67.7357 123.305C69.1798 123.896 70.5996 124.826 72.1412 125.667C65.0486 132.148 58.0901 127.646 51.1987 124.959C41.486 121.165 31.9744 115.2 22.8407 106.151C15.9248 99.3007 9.13693 91.7716 3.48848 79.5921C-1.96498 67.8259 -0.533062 52.62 4.39638 43.216C11.5803 29.5011 20.2449 23.5812 29.0375 18.9604C33.778 16.4654 38.5247 14.0147 43.3018 11.9922C48.0667 9.98444 52.8621 8.43432 57.6575 6.95802C58.8274 6.58894 60.0522 7.26804 60.7163 7.37138C62.1848 6.61847 63.2085 6.10177 64.226 5.55554C65.7737 4.74357 67.5164 4.81739 68.9178 4.7731C70.9895 4.69928 73.0917 0.905191 75.3706 4.35974C76.2297 5.65888 77.9115 3.57729 79.2276 3.31155C82.5911 2.61769 85.9607 2.02716 89.3302 1.48093C92.9435 0.905172 96.5629 0.152259 100.182 0.0046284C102.358 -0.0839497 104.533 1.12663 106.714 1.25949C108.353 1.36284 109.999 0.358962 111.638 0.418014C114.313 0.506592 116.981 1.22996 119.656 1.34807C121.362 1.42188 123.203 -0.24633 124.756 0.801844C128.833 3.533 132.94 1.99766 137.016 2.63247C141.994 3.40014 146.979 4.46308 151.926 6.04272C163.01 9.57108 174.154 12.8337 184.397 24.7917C186.377 27.1095 188.297 30.3131 189.851 34.0629C194.823 46.0948 193.756 62.1569 187.718 70.8819C179.602 82.6037 170.718 89.2028 161.566 93.6169C149.824 99.2859 137.997 103.951 126.231 109.354C115.214 114.418 104.106 116.854 92.9131 116.677C87.746 116.588 82.585 115.141 77.4179 114.211C76.8634 114.108 76.3333 113.355 75.791 112.897C75.7728 112.455 75.7545 112.012 75.7362 111.569H75.7301Z" fill="#FF856A"/>
</svg>
