<svg width="5" height="5" viewBox="0 0 68 68" fill="none" xmlns="http://www.w3.org/2000/svg">
<path d="M57.6791 26.5965L48.3741 24.3046L51.0417 33.5089L57.6791 26.5965ZM10.2584 41.2043L50.7361 29.4728L50.274 27.8786L9.79632 39.6101L10.2584 41.2043Z" fill="black"/>
<rect x="47.7891" y="45.9072" width="21.6924" height="27.1065" transform="rotate(166.212 47.7891 45.9072)" fill="white"/>
<path d="M35.0814 42.8899V41.7939H33.9854V42.8899H35.0814ZM36.1774 41.7939V40.6979H35.0814V41.7939H36.1774ZM36.1774 40.6979V39.6018H35.0814V40.6979H36.1774ZM36.1774 39.6018V38.5058H35.0814V39.6018H36.1774ZM36.1774 38.5058V37.4098H35.0814V38.5058H36.1774ZM36.1774 37.4098V36.3138H35.0814V37.4098H36.1774ZM36.1774 42.8899V41.7939H35.0814V42.8899H36.1774ZM32.8894 42.8899V41.7939H31.7934V42.8899H32.8894ZM32.8894 41.7939V40.6979H31.7934V41.7939H32.8894ZM32.8894 40.6979V39.6018H31.7934V40.6979H32.8894ZM32.8894 39.6018V38.5058H31.7934V39.6018H32.8894ZM32.8894 38.5058V37.4098H31.7934V38.5058H32.8894ZM33.9854 37.4098V36.3138H32.8894V37.4098H33.9854ZM35.0814 37.4098V36.3138H33.9854V37.4098H35.0814ZM35.0814 38.5058V37.4098H33.9854V38.5058H35.0814ZM35.0814 39.6018V38.5058H33.9854V39.6018H35.0814ZM35.0814 40.6979V39.6018H33.9854V40.6979H35.0814ZM35.0814 41.7939V40.6979H33.9854V41.7939H35.0814ZM33.9854 42.8899V41.7939H32.8894V42.8899H33.9854ZM32.8894 37.4098V36.3138H31.7934V37.4098H32.8894ZM33.9854 38.5058V37.4098H32.8894V38.5058H33.9854ZM33.9854 39.6018V38.5058H32.8894V39.6018H33.9854ZM33.9854 40.6979V39.6018H32.8894V40.6979H33.9854ZM33.9854 41.7939V40.6979H32.8894V41.7939H33.9854ZM26.3133 36.3138V35.2178H25.2173V36.3138H26.3133ZM27.4093 36.3138V35.2178H26.3133V36.3138H27.4093ZM28.5054 36.3138V35.2178H27.4093V36.3138H28.5054ZM29.6014 36.3138V35.2178H28.5054V36.3138H29.6014ZM30.6974 36.3138V35.2178H29.6014V36.3138H30.6974ZM31.7934 36.3138V35.2178H30.6974V36.3138H31.7934ZM32.8894 36.3138V35.2178H31.7934V36.3138H32.8894ZM33.9854 36.3138V35.2178H32.8894V36.3138H33.9854ZM35.0814 36.3138V35.2178H33.9854V36.3138H35.0814ZM36.1774 36.3138V35.2178H35.0814V36.3138H36.1774ZM37.2734 36.3138V35.2178H36.1774V36.3138H37.2734ZM38.3694 36.3138V35.2178H37.2734V36.3138H38.3694ZM39.4654 36.3138V35.2178H38.3694V36.3138H39.4654ZM40.5614 36.3138V35.2178H39.4654V36.3138H40.5614ZM41.6574 36.3138V35.2178H40.5614V36.3138H41.6574ZM42.7534 36.3138V35.2178H41.6574V36.3138H42.7534ZM42.7534 35.2178V34.1218H41.6574V35.2178H42.7534ZM42.7534 34.1218V33.0258H41.6574V34.1218H42.7534ZM42.7534 33.0258V31.9298H41.6574V33.0258H42.7534ZM41.6574 33.0258V31.9298H40.5614V33.0258H41.6574ZM40.5614 33.0258V31.9298H39.4654V33.0258H40.5614ZM40.5614 34.1218V33.0258H39.4654V34.1218H40.5614ZM39.4654 34.1218V33.0258H38.3694V34.1218H39.4654ZM38.3694 34.1218V33.0258H37.2734V34.1218H38.3694ZM37.2734 34.1218V33.0258H36.1774V34.1218H37.2734ZM36.1774 34.1218V33.0258H35.0814V34.1218H36.1774ZM35.0814 34.1218V33.0258H33.9854V34.1218H35.0814ZM33.9854 34.1218V33.0258H32.8894V34.1218H33.9854ZM32.8894 34.1218V33.0258H31.7934V34.1218H32.8894ZM32.8894 35.2178V34.1218H31.7934V35.2178H32.8894ZM33.9854 35.2178V34.1218H32.8894V35.2178H33.9854ZM36.1774 35.2178V34.1218H35.0814V35.2178H36.1774ZM37.2734 35.2178V34.1218H36.1774V35.2178H37.2734ZM39.4654 35.2178V34.1218H38.3694V35.2178H39.4654ZM40.5614 35.2178V34.1218H39.4654V35.2178H40.5614ZM41.6574 35.2178V34.1218H40.5614V35.2178H41.6574ZM41.6574 34.1218V33.0258H40.5614V34.1218H41.6574ZM38.3694 35.2178V34.1218H37.2734V35.2178H38.3694ZM35.0814 35.2178V34.1218H33.9854V35.2178H35.0814ZM31.7934 35.2178V34.1218H30.6974V35.2178H31.7934ZM30.6974 35.2178V34.1218H29.6014V35.2178H30.6974ZM29.6014 35.2178V34.1218H28.5054V35.2178H29.6014ZM29.6014 34.1218V33.0258H28.5054V34.1218H29.6014ZM28.5054 34.1218V33.0258H27.4093V34.1218H28.5054ZM27.4093 34.1218V33.0258H26.3133V34.1218H27.4093ZM26.3133 34.1218V33.0258H25.2173V34.1218H26.3133ZM26.3133 35.2178V34.1218H25.2173V35.2178H26.3133ZM27.4093 35.2178V34.1218H26.3133V35.2178H27.4093ZM28.5054 35.2178V34.1218H27.4093V35.2178H28.5054ZM26.3133 33.0258V31.9298H25.2173V33.0258H26.3133ZM27.4093 33.0258V31.9298H26.3133V33.0258H27.4093ZM28.5054 33.0258V31.9298H27.4093V33.0258H28.5054ZM29.6014 33.0258V31.9298H28.5054V33.0258H29.6014ZM30.6974 33.0258V31.9298H29.6014V33.0258H30.6974ZM31.7934 33.0258V31.9298H30.6974V33.0258H31.7934ZM32.8894 33.0258V31.9298H31.7934V33.0258H32.8894ZM33.9854 33.0258V31.9298H32.8894V33.0258H33.9854ZM31.7934 34.1218V33.0258H30.6974V34.1218H31.7934ZM30.6974 34.1218V33.0258H29.6014V34.1218H30.6974ZM39.4654 33.0258V31.9298H38.3694V33.0258H39.4654ZM38.3694 33.0258V31.9298H37.2734V33.0258H38.3694ZM36.1774 31.9298V30.8338H35.0814V31.9298H36.1774ZM35.0814 31.9298V30.8338H33.9854V31.9298H35.0814ZM35.0814 33.0258V31.9298H33.9854V33.0258H35.0814ZM36.1774 33.0258V31.9298H35.0814V33.0258H36.1774ZM37.2734 33.0258V31.9298H36.1774V33.0258H37.2734ZM36.1774 27.5458V26.4498H35.0814V27.5458H36.1774ZM36.1774 28.6418V27.5458H35.0814V28.6418H36.1774ZM36.1774 29.7378V28.6418H35.0814V29.7378H36.1774ZM36.1774 30.8338V29.7378H35.0814V30.8338H36.1774ZM36.1774 26.4498V25.3538H35.0814V26.4498H36.1774ZM35.0814 26.4498V25.3538H33.9854V26.4498H35.0814ZM33.9854 26.4498V25.3538H32.8894V26.4498H33.9854ZM32.8894 26.4498V25.3538H31.7934V26.4498H32.8894ZM32.8894 27.5458V26.4498H31.7934V27.5458H32.8894ZM32.8894 28.6418V27.5458H31.7934V28.6418H32.8894ZM32.8894 29.7378V28.6418H31.7934V29.7378H32.8894ZM32.8894 30.8338V29.7378H31.7934V30.8338H32.8894ZM32.8894 31.9298V30.8338H31.7934V31.9298H32.8894ZM33.9854 31.9298V30.8338H32.8894V31.9298H33.9854ZM33.9854 30.8338V29.7378H32.8894V30.8338H33.9854ZM33.9854 29.7378V28.6418H32.8894V29.7378H33.9854ZM33.9854 28.6418V27.5458H32.8894V28.6418H33.9854ZM33.9854 27.5458V26.4498H32.8894V27.5458H33.9854ZM35.0814 28.6418V27.5458H33.9854V28.6418H35.0814ZM35.0814 29.7378V28.6418H33.9854V29.7378H35.0814ZM35.0814 30.8338V29.7378H33.9854V30.8338H35.0814ZM35.0814 27.5458V26.4498H33.9854V27.5458H35.0814Z" fill="#FF497C"/>
</svg>
