<svg width="5" height="5" viewBox="0 0 46 26" fill="none" xmlns="http://www.w3.org/2000/svg">
<path d="M0.171135 4.25662L5.80899 12.0058L9.70105 3.24867L0.171135 4.25662ZM45.8449 23.6479L7.33369 6.53178L6.65957 8.04856L45.1708 25.1646L45.8449 23.6479Z" fill="black"/>
<rect x="16.9648" y="8.17188" width="12.3137" height="12.3137" fill="white"/>
<path d="M27.3944 8.17658V8.76391H27.9818V8.17658H27.3944ZM26.8071 8.17658V8.76391H27.3944V8.17658H26.8071ZM26.2198 8.17658V8.76391H26.8071V8.17658H26.2198ZM26.2198 8.76391V9.35125H26.8071V8.76391H26.2198ZM25.6324 8.76391V9.35125H26.2198V8.76391H25.6324ZM25.0451 9.35125V9.93858H25.6324V9.35125H25.0451ZM25.0451 9.93858V10.5259H25.6324V9.93858H25.0451ZM25.0451 8.76391V9.35125H25.6324V8.76391H25.0451ZM25.0451 8.17658V8.76391H25.6324V8.17658H25.0451ZM25.6324 8.17658V8.76391H26.2198V8.17658H25.6324ZM26.8071 8.76391V9.35125H27.3944V8.76391H26.8071ZM26.8071 9.35125V9.93858H27.3944V9.35125H26.8071ZM27.3944 9.35125V9.93858H27.9818V9.35125H27.3944ZM27.3944 8.76391V9.35125H27.9818V8.76391H27.3944ZM27.3944 9.93858V10.5259H27.9818V9.93858H27.3944ZM27.3944 10.5259V11.1132H27.9818V10.5259H27.3944ZM27.3944 11.1132V11.7006H27.9818V11.1132H27.3944ZM26.8071 11.1132V11.7006H27.3944V11.1132H26.8071ZM26.2198 11.1132V11.7006H26.8071V11.1132H26.2198ZM25.6324 11.1132V11.7006H26.2198V11.1132H25.6324ZM25.0451 11.1132V11.7006H25.6324V11.1132H25.0451ZM25.0451 10.5259V11.1132H25.6324V10.5259H25.0451ZM25.6324 10.5259V11.1132H26.2198V10.5259H25.6324ZM25.6324 9.93858V10.5259H26.2198V9.93858H25.6324ZM25.6324 9.35125V9.93858H26.2198V9.35125H25.6324ZM26.2198 9.35125V9.93858H26.8071V9.35125H26.2198ZM26.2198 9.93858V10.5259H26.8071V9.93858H26.2198ZM26.8071 9.93858V10.5259H27.3944V9.93858H26.8071ZM26.8071 10.5259V11.1132H27.3944V10.5259H26.8071ZM26.2198 10.5259V11.1132H26.8071V10.5259H26.2198ZM26.8071 11.7006V12.2879H27.3944V11.7006H26.8071ZM26.2198 11.7006V12.2879H26.8071V11.7006H26.2198ZM26.2198 12.2879V12.8753H26.8071V12.2879H26.2198ZM25.6324 12.2879V12.8753H26.2198V12.2879H25.6324ZM25.6324 12.8753V13.4626H26.2198V12.8753H25.6324ZM25.0451 12.8753V13.4626H25.6324V12.8753H25.0451ZM25.0451 13.4626V14.0499H25.6324V13.4626H25.0451ZM25.0451 14.0499V14.6373H25.6324V14.0499H25.0451ZM25.0451 14.6373V15.2246H25.6324V14.6373H25.0451ZM25.6324 14.6373V15.2246H26.2198V14.6373H25.6324ZM25.6324 14.0499V14.6373H26.2198V14.0499H25.6324ZM26.2198 15.2246V15.8119H26.8071V15.2246H26.2198ZM26.2198 14.6373V15.2246H26.8071V14.6373H26.2198ZM26.2198 15.8119V16.3993H26.8071V15.8119H26.2198ZM26.8071 15.8119V16.3993H27.3944V15.8119H26.8071ZM26.8071 15.2246V15.8119H27.3944V15.2246H26.8071ZM27.3944 15.8119V16.3993H27.9818V15.8119H27.3944ZM26.2198 16.3993V16.9866H26.8071V16.3993H26.2198ZM25.6324 16.3993V16.9866H26.2198V16.3993H25.6324ZM25.0451 16.3993V16.9866H25.6324V16.3993H25.0451ZM25.0451 15.8119V16.3993H25.6324V15.8119H25.0451ZM24.4577 15.8119V16.3993H25.0451V15.8119H24.4577ZM24.4577 15.2246V15.8119H25.0451V15.2246H24.4577ZM23.8704 15.2246V15.8119H24.4577V15.2246H23.8704ZM23.8704 14.6373V15.2246H24.4577V14.6373H23.8704ZM23.2831 14.6373V15.2246H23.8704V14.6373H23.2831ZM22.6957 14.6373V15.2246H23.2831V14.6373H22.6957ZM22.1084 14.6373V15.2246H22.6957V14.6373H22.1084ZM22.1084 15.2246V15.8119H22.6957V15.2246H22.1084ZM21.5211 15.2246V15.8119H22.1084V15.2246H21.5211ZM21.5211 15.8119V16.3993H22.1084V15.8119H21.5211ZM20.9337 15.8119V16.3993H21.5211V15.8119H20.9337ZM20.9337 16.3993V16.9866H21.5211V16.3993H20.9337ZM20.3464 16.3993V16.9866H20.9337V16.3993H20.3464ZM20.3464 15.8119V16.3993H20.9337V15.8119H20.3464ZM19.7591 15.8119V16.3993H20.3464V15.8119H19.7591ZM19.1717 15.8119V16.3993H19.7591V15.8119H19.1717ZM18.5844 15.8119V16.3993H19.1717V15.8119H18.5844ZM18.5844 16.3993V16.9866H19.1717V16.3993H18.5844ZM19.1717 15.2246V15.8119H19.7591V15.2246H19.1717ZM19.7591 15.2246V15.8119H20.3464V15.2246H19.7591ZM19.7591 14.6373V15.2246H20.3464V14.6373H19.7591ZM20.3464 14.6373V15.2246H20.9337V14.6373H20.3464ZM20.9337 14.6373V15.2246H21.5211V14.6373H20.9337ZM20.9337 14.0499V14.6373H21.5211V14.0499H20.9337ZM21.5211 14.6373V15.2246H22.1084V14.6373H21.5211ZM20.3464 15.2246V15.8119H20.9337V15.2246H20.3464ZM20.9337 15.2246V15.8119H21.5211V15.2246H20.9337ZM23.8704 13.4626V14.0499H24.4577V13.4626H23.8704ZM23.2831 13.4626V14.0499H23.8704V13.4626H23.2831ZM22.6957 13.4626V14.0499H23.2831V13.4626H22.6957ZM22.1084 13.4626V14.0499H22.6957V13.4626H22.1084ZM21.5211 13.4626V14.0499H22.1084V13.4626H21.5211ZM20.9337 13.4626V14.0499H21.5211V13.4626H20.9337ZM21.5211 14.0499V14.6373H22.1084V14.0499H21.5211ZM22.1084 14.0499V14.6373H22.6957V14.0499H22.1084ZM22.6957 14.0499V14.6373H23.2831V14.0499H22.6957ZM23.2831 14.0499V14.6373H23.8704V14.0499H23.2831ZM23.8704 14.0499V14.6373H24.4577V14.0499H23.8704ZM24.4577 14.0499V14.6373H25.0451V14.0499H24.4577ZM24.4577 13.4626V14.0499H25.0451V13.4626H24.4577ZM24.4577 14.6373V15.2246H25.0451V14.6373H24.4577ZM25.0451 15.2246V15.8119H25.6324V15.2246H25.0451ZM25.6324 15.8119V16.3993H26.2198V15.8119H25.6324ZM25.6324 15.2246V15.8119H26.2198V15.2246H25.6324ZM20.3464 14.0499V14.6373H20.9337V14.0499H20.3464ZM20.3464 12.8753V13.4626H20.9337V12.8753H20.3464ZM20.3464 12.2879V12.8753H20.9337V12.2879H20.3464ZM19.7591 12.2879V12.8753H20.3464V12.2879H19.7591ZM19.7591 11.7006V12.2879H20.3464V11.7006H19.7591ZM19.1717 11.7006V12.2879H19.7591V11.7006H19.1717ZM19.1717 11.1132V11.7006H19.7591V11.1132H19.1717ZM18.5844 11.1132V11.7006H19.1717V11.1132H18.5844ZM18.5844 10.5259V11.1132H19.1717V10.5259H18.5844ZM18.5844 9.93858V10.5259H19.1717V9.93858H18.5844ZM18.5844 9.35125V9.93858H19.1717V9.35125H18.5844ZM18.5844 8.76391V9.35125H19.1717V8.76391H18.5844ZM18.5844 8.17658V8.76391H19.1717V8.17658H18.5844ZM19.1717 8.17658V8.76391H19.7591V8.17658H19.1717ZM19.7591 8.17658V8.76391H20.3464V8.17658H19.7591ZM20.3464 8.17658V8.76391H20.9337V8.17658H20.3464ZM20.9337 8.17658V8.76391H21.5211V8.17658H20.9337ZM20.9337 8.76391V9.35125H21.5211V8.76391H20.9337ZM20.9337 9.35125V9.93858H21.5211V9.35125H20.9337ZM20.9337 9.93858V10.5259H21.5211V9.93858H20.9337ZM20.9337 10.5259V11.1132H21.5211V10.5259H20.9337ZM20.9337 11.1132V11.7006H21.5211V11.1132H20.9337ZM21.5211 11.1132V11.7006H22.1084V11.1132H21.5211ZM21.5211 11.7006V12.2879H22.1084V11.7006H21.5211ZM22.1084 11.7006V12.2879H22.6957V11.7006H22.1084ZM22.1084 12.2879V12.8753H22.6957V12.2879H22.1084ZM22.6957 12.2879V12.8753H23.2831V12.2879H22.6957ZM23.2831 12.2879V12.8753H23.8704V12.2879H23.2831ZM23.8704 11.7006V12.2879H24.4577V11.7006H23.8704ZM24.4577 11.7006V12.2879H25.0451V11.7006H24.4577ZM24.4577 11.1132V11.7006H25.0451V11.1132H24.4577ZM25.0451 11.7006V12.2879H25.6324V11.7006H25.0451ZM25.6324 11.7006V12.2879H26.2198V11.7006H25.6324ZM25.0451 12.2879V12.8753H25.6324V12.2879H25.0451ZM24.4577 12.2879V12.8753H25.0451V12.2879H24.4577ZM23.8704 12.2879V12.8753H24.4577V12.2879H23.8704ZM23.8704 12.8753V13.4626H24.4577V12.8753H23.8704ZM24.4577 12.8753V13.4626H25.0451V12.8753H24.4577ZM23.2831 12.8753V13.4626H23.8704V12.8753H23.2831ZM22.6957 12.8753V13.4626H23.2831V12.8753H22.6957ZM22.1084 12.8753V13.4626H22.6957V12.8753H22.1084ZM21.5211 12.8753V13.4626H22.1084V12.8753H21.5211ZM20.9337 12.8753V13.4626H21.5211V12.8753H20.9337ZM20.9337 12.2879V12.8753H21.5211V12.2879H20.9337ZM21.5211 12.2879V12.8753H22.1084V12.2879H21.5211ZM20.3464 8.76391V9.35125H20.9337V8.76391H20.3464ZM19.7591 8.76391V9.35125H20.3464V8.76391H19.7591ZM19.1717 8.76391V9.35125H19.7591V8.76391H19.1717ZM19.1717 9.35125V9.93858H19.7591V9.35125H19.1717ZM19.1717 9.93858V10.5259H19.7591V9.93858H19.1717ZM19.1717 10.5259V11.1132H19.7591V10.5259H19.1717ZM19.7591 10.5259V11.1132H20.3464V10.5259H19.7591ZM19.7591 9.93858V10.5259H20.3464V9.93858H19.7591ZM19.7591 9.35125V9.93858H20.3464V9.35125H19.7591ZM20.3464 9.35125V9.93858H20.9337V9.35125H20.3464ZM20.3464 9.93858V10.5259H20.9337V9.93858H20.3464ZM20.3464 10.5259V11.1132H20.9337V10.5259H20.3464ZM20.3464 11.1132V11.7006H20.9337V11.1132H20.3464ZM19.7591 11.1132V11.7006H20.3464V11.1132H19.7591ZM20.3464 11.7006V12.2879H20.9337V11.7006H20.3464ZM20.9337 11.7006V12.2879H21.5211V11.7006H20.9337ZM27.3944 16.3993V16.9866H27.9818V16.3993H27.3944ZM26.8071 16.3993V16.9866H27.3944V16.3993H26.8071ZM19.7591 16.3993V16.9866H20.3464V16.3993H19.7591ZM19.1717 16.3993V16.9866H19.7591V16.3993H19.1717ZM20.9337 16.9866V17.5739H21.5211V16.9866H20.9337ZM20.9337 17.5739V18.1613H21.5211V17.5739H20.9337ZM20.9337 18.1613V18.7486H21.5211V18.1613H20.9337ZM20.9337 18.7486V19.3359H21.5211V18.7486H20.9337ZM20.3464 18.7486V19.3359H20.9337V18.7486H20.3464ZM19.7591 18.7486V19.3359H20.3464V18.7486H19.7591ZM19.1717 18.7486V19.3359H19.7591V18.7486H19.1717ZM18.5844 18.7486V19.3359H19.1717V18.7486H18.5844ZM18.5844 18.1613V18.7486H19.1717V18.1613H18.5844ZM18.5844 17.5739V18.1613H19.1717V17.5739H18.5844ZM18.5844 16.9866V17.5739H19.1717V16.9866H18.5844ZM19.1717 16.9866V17.5739H19.7591V16.9866H19.1717ZM19.7591 16.9866V17.5739H20.3464V16.9866H19.7591ZM20.3464 16.9866V17.5739H20.9337V16.9866H20.3464ZM20.3464 17.5739V18.1613H20.9337V17.5739H20.3464ZM20.3464 18.1613V18.7486H20.9337V18.1613H20.3464ZM19.7591 18.1613V18.7486H20.3464V18.1613H19.7591ZM19.1717 18.1613V18.7486H19.7591V18.1613H19.1717ZM19.1717 17.5739V18.1613H19.7591V17.5739H19.1717ZM19.7591 17.5739V18.1613H20.3464V17.5739H19.7591ZM27.3944 16.9866V17.5739H27.9818V16.9866H27.3944ZM27.3944 17.5739V18.1613H27.9818V17.5739H27.3944ZM27.3944 18.1613V18.7486H27.9818V18.1613H27.3944ZM26.8071 18.1613V18.7486H27.3944V18.1613H26.8071ZM26.8071 18.7486V19.3359H27.3944V18.7486H26.8071ZM27.3944 18.7486V19.3359H27.9818V18.7486H27.3944ZM26.2198 18.7486V19.3359H26.8071V18.7486H26.2198ZM25.6324 18.7486V19.3359H26.2198V18.7486H25.6324ZM25.0451 18.7486V19.3359H25.6324V18.7486H25.0451ZM25.0451 18.1613V18.7486H25.6324V18.1613H25.0451ZM25.0451 17.5739V18.1613H25.6324V17.5739H25.0451ZM25.0451 16.9866V17.5739H25.6324V16.9866H25.0451ZM25.6324 16.9866V17.5739H26.2198V16.9866H25.6324ZM25.6324 17.5739V18.1613H26.2198V17.5739H25.6324ZM25.6324 18.1613V18.7486H26.2198V18.1613H25.6324ZM26.2198 18.1613V18.7486H26.8071V18.1613H26.2198ZM26.2198 17.5739V18.1613H26.8071V17.5739H26.2198ZM26.2198 16.9866V17.5739H26.8071V16.9866H26.2198ZM26.8071 17.5739V18.1613H27.3944V17.5739H26.8071ZM26.8071 16.9866V17.5739H27.3944V16.9866H26.8071Z" fill="#FF497C"/>
</svg>
