<svg width="50" height="74" viewBox="0 0 92 74" fill="none" xmlns="http://www.w3.org/2000/svg">
<circle cx="21.8935" cy="21.8935" r="21.5249" transform="matrix(-1 0 0 1 91.3262 29.6172)" fill="#DBDBDB" stroke="black" stroke-width="0.737225"/>
<g filter="url(#filter0_d_1_662)">
<path fill-rule="evenodd" clip-rule="evenodd" d="M68.9987 48.0143L50.1662 29.3983L44.6928 37.4989L66.138 52.4455C66.6052 53.6899 67.8059 54.5755 69.2135 54.5755C71.0272 54.5755 72.4976 53.1051 72.4976 51.2914C72.4976 49.4777 71.0272 48.0074 69.2135 48.0074C69.1414 48.0074 69.0697 48.0097 68.9987 48.0143Z" fill="white"/>
</g>
<path d="M50.696 32.0304C50.9058 29.372 49.5093 26.8447 47.1469 25.6078L9.80114 6.05333C5.42122 3.75999 0.190121 7.02053 0.320179 11.9628C0.404953 15.1842 2.84463 17.8535 6.04543 18.2269L10.5161 18.7485C12.5136 18.9816 14.3701 19.895 15.7736 21.3354L19.8788 25.5487C21.2058 26.9106 22.9401 27.8036 24.8195 28.0928L30.7835 29.0103C32.4323 29.264 33.9743 29.9833 35.2282 31.0836L41.3172 36.4271C42.9737 37.8807 45.3258 38.2348 47.3368 37.3333C49.2162 36.4908 50.486 34.6898 50.6481 32.6365L50.696 32.0304Z" fill="#FFBF00"/>
<circle cx="2.18935" cy="2.18935" r="2.18935" transform="matrix(-1 0 0 1 71.6221 49.3201)" fill="black"/>
<defs>
<filter id="filter0_d_1_662" x="43.2184" y="29.3983" width="30.7536" height="28.1261" filterUnits="userSpaceOnUse" color-interpolation-filters="sRGB">
<feFlood flood-opacity="0" result="BackgroundImageFix"/>
<feColorMatrix in="SourceAlpha" type="matrix" values="0 0 0 0 0 0 0 0 0 0 0 0 0 0 0 0 0 0 127 0" result="hardAlpha"/>
<feOffset dy="1.47445"/>
<feGaussianBlur stdDeviation="0.737225"/>
<feComposite in2="hardAlpha" operator="out"/>
<feColorMatrix type="matrix" values="0 0 0 0 0 0 0 0 0 0 0 0 0 0 0 0 0 0 0.25 0"/>
<feBlend mode="normal" in2="BackgroundImageFix" result="effect1_dropShadow_1_662"/>
<feBlend mode="normal" in="SourceGraphic" in2="effect1_dropShadow_1_662" result="shape"/>
</filter>
</defs>
</svg>
