<svg width="50" height="73" viewBox="0 0 92 73" fill="none" xmlns="http://www.w3.org/2000/svg">
<circle cx="21.8935" cy="21.8935" r="21.5249" transform="matrix(-1 0 0 1 91.3262 28.6797)" fill="#D8D8D8" stroke="black" stroke-width="0.737225"/>
<g filter="url(#filter0_d_1_644)">
<path fill-rule="evenodd" clip-rule="evenodd" d="M68.9987 47.077L50.1662 28.4609L44.6928 36.5615L66.138 51.5082C66.6052 52.7526 67.8059 53.6381 69.2135 53.6381C71.0272 53.6381 72.4976 52.1678 72.4976 50.3541C72.4976 48.5404 71.0272 47.0701 69.2135 47.0701C69.1414 47.0701 69.0697 47.0724 68.9987 47.077Z" fill="white"/>
</g>
<path d="M50.696 31.0932C50.9058 28.4348 49.5093 25.9076 47.1469 24.6706L9.80114 5.1162C5.42122 2.82285 0.190121 6.08339 0.320179 11.0257C0.404953 14.2471 2.84463 16.9164 6.04543 17.2898L10.5161 17.8114C12.5136 18.0444 14.3701 18.9579 15.7736 20.3983L19.8788 24.6116C21.2058 25.9735 22.9401 26.8665 24.8195 27.1557L30.7835 28.0732C32.4323 28.3269 33.9743 29.0462 35.2282 30.1465L41.3172 35.4899C42.9737 36.9436 45.3258 37.2977 47.3368 36.3962C49.2162 35.5537 50.486 33.7526 50.6481 31.6994L50.696 31.0932Z" fill="#E70000"/>
<circle cx="2.18935" cy="2.18935" r="2.18935" transform="matrix(-1 0 0 1 71.6221 48.3828)" fill="black"/>
<defs>
<filter id="filter0_d_1_644" x="43.2184" y="28.4609" width="30.7536" height="28.1261" filterUnits="userSpaceOnUse" color-interpolation-filters="sRGB">
<feFlood flood-opacity="0" result="BackgroundImageFix"/>
<feColorMatrix in="SourceAlpha" type="matrix" values="0 0 0 0 0 0 0 0 0 0 0 0 0 0 0 0 0 0 127 0" result="hardAlpha"/>
<feOffset dy="1.47445"/>
<feGaussianBlur stdDeviation="0.737225"/>
<feComposite in2="hardAlpha" operator="out"/>
<feColorMatrix type="matrix" values="0 0 0 0 0 0 0 0 0 0 0 0 0 0 0 0 0 0 0.25 0"/>
<feBlend mode="normal" in2="BackgroundImageFix" result="effect1_dropShadow_1_644"/>
<feBlend mode="normal" in="SourceGraphic" in2="effect1_dropShadow_1_644" result="shape"/>
</filter>
</defs>
</svg>
