<svg width="50" height="73" viewBox="0 0 92 73" fill="none" xmlns="http://www.w3.org/2000/svg">
<circle cx="21.8935" cy="21.8935" r="21.5249" transform="matrix(-1 0 0 1 91.2959 28.6797)" fill="#CBCBCB" stroke="black" stroke-width="0.737225"/>
<g filter="url(#filter0_d_1_653)">
<path fill-rule="evenodd" clip-rule="evenodd" d="M68.9687 47.0774L50.1359 28.4611L44.6625 36.5617L66.1076 51.5083C66.5747 52.7529 67.7755 53.6386 69.1833 53.6386C70.997 53.6386 72.4673 52.1683 72.4673 50.3546C72.4673 48.5408 70.997 47.0705 69.1833 47.0705C69.1112 47.0705 69.0396 47.0729 68.9687 47.0774Z" fill="white"/>
</g>
<path d="M50.6657 31.0937C50.8756 28.4353 49.4791 25.9081 47.1166 24.6711L9.77086 5.11669C5.39094 2.82334 0.159847 6.08388 0.289906 11.0262C0.37468 14.2476 2.81435 16.9169 6.01516 17.2903L10.4858 17.8119C12.4834 18.0449 14.3399 18.9584 15.7433 20.3988L19.8486 24.6121C21.1756 25.974 22.9098 26.867 24.7892 27.1561L30.7532 28.0737C32.402 28.3273 33.9441 29.0466 35.1979 30.147L41.287 35.4904C42.9434 36.9441 45.2955 37.2982 47.3066 36.3967C49.186 35.5542 50.4557 33.7531 50.6178 31.6999L50.6657 31.0937Z" fill="#0066FF"/>
<circle cx="2.18935" cy="2.18935" r="2.18935" transform="matrix(-1 0 0 1 71.5918 48.3831)" fill="black"/>
<defs>
<filter id="filter0_d_1_653" x="43.1881" y="28.4611" width="30.7536" height="28.1264" filterUnits="userSpaceOnUse" color-interpolation-filters="sRGB">
<feFlood flood-opacity="0" result="BackgroundImageFix"/>
<feColorMatrix in="SourceAlpha" type="matrix" values="0 0 0 0 0 0 0 0 0 0 0 0 0 0 0 0 0 0 127 0" result="hardAlpha"/>
<feOffset dy="1.47445"/>
<feGaussianBlur stdDeviation="0.737225"/>
<feComposite in2="hardAlpha" operator="out"/>
<feColorMatrix type="matrix" values="0 0 0 0 0 0 0 0 0 0 0 0 0 0 0 0 0 0 0.25 0"/>
<feBlend mode="normal" in2="BackgroundImageFix" result="effect1_dropShadow_1_653"/>
<feBlend mode="normal" in="SourceGraphic" in2="effect1_dropShadow_1_653" result="shape"/>
</filter>
</defs>
</svg>
