<svg width="300" height="130" viewBox="0 0 300 130" fill="none" xmlns="http://www.w3.org/2000/svg">
<path d="M6.19658 14.1966H283.803V68.1068V123.256H6.19658V14.1966Z" fill="white" stroke="black" stroke-width="12.3932"/>
<path d="M16.1966 6.19658H293.803V60.1068V115.256H16.1966V6.19658Z" fill="white" stroke="#FF497C" stroke-width="12.3932"/>
<path d="M69.5162 69.8921V71.1011H68.3071V69.8921H69.5162ZM69.5162 68.683V69.8921H68.3071V68.683H69.5162ZM69.5162 67.4739V68.683H68.3071V67.4739H69.5162ZM69.5162 66.2648V67.4739H68.3071V66.2648H69.5162ZM69.5162 57.8012V59.0103H68.3071V57.8012H69.5162ZM70.7252 57.8012V59.0103H69.5162V57.8012H70.7252ZM70.7252 59.0103V60.2193H69.5162V59.0103H70.7252ZM70.7252 60.2193V61.4284H69.5162V60.2193H70.7252ZM71.9343 66.2648V67.4739H70.7252V66.2648H71.9343ZM71.9343 67.4739V68.683H70.7252V67.4739H71.9343ZM71.9343 68.683V69.8921H70.7252V68.683H71.9343ZM71.9343 69.8921V71.1011H70.7252V69.8921H71.9343ZM71.9343 71.1011V72.3102H70.7252V71.1011H71.9343ZM71.9343 72.3102V73.5193H70.7252V72.3102H71.9343ZM71.9343 73.5193V74.7284H70.7252V73.5193H71.9343ZM74.3525 74.7284V75.9375H73.1434V74.7284H74.3525ZM74.3525 73.5193V74.7284H73.1434V73.5193H74.3525ZM74.3525 72.3102V73.5193H73.1434V72.3102H74.3525ZM74.3525 71.1011V72.3102H73.1434V71.1011H74.3525ZM74.3525 69.8921V71.1011H73.1434V69.8921H74.3525ZM74.3525 68.683V69.8921H73.1434V68.683H74.3525ZM74.3525 67.4739V68.683H73.1434V67.4739H74.3525ZM74.3525 66.2648V67.4739H73.1434V66.2648H74.3525ZM73.1434 66.2648V67.4739H71.9343V66.2648H73.1434ZM73.1434 67.4739V68.683H71.9343V67.4739H73.1434ZM73.1434 68.683V69.8921H71.9343V68.683H73.1434ZM73.1434 69.8921V71.1011H71.9343V69.8921H73.1434ZM73.1434 71.1011V72.3102H71.9343V71.1011H73.1434ZM73.1434 72.3102V73.5193H71.9343V72.3102H73.1434ZM73.1434 73.5193V74.7284H71.9343V73.5193H73.1434ZM70.7252 72.3102V73.5193H69.5162V72.3102H70.7252ZM70.7252 71.1011V72.3102H69.5162V71.1011H70.7252ZM70.7252 69.8921V71.1011H69.5162V69.8921H70.7252ZM70.7252 68.683V69.8921H69.5162V68.683H70.7252ZM70.7252 67.4739V68.683H69.5162V67.4739H70.7252ZM70.7252 66.2648V67.4739H69.5162V66.2648H70.7252ZM69.5162 56.5921V57.8012H68.3071V56.5921H69.5162ZM73.1434 56.5921V57.8012H71.9343V56.5921H73.1434ZM73.1434 57.8012V59.0103H71.9343V57.8012H73.1434ZM73.1434 59.0103V60.2193H71.9343V59.0103H73.1434ZM73.1434 60.2193V61.4284H71.9343V60.2193H73.1434ZM73.1434 61.4284V62.6375H71.9343V61.4284H73.1434ZM74.3525 62.6375V63.8466H73.1434V62.6375H74.3525ZM74.3525 61.4284V62.6375H73.1434V61.4284H74.3525ZM74.3525 60.2193V61.4284H73.1434V60.2193H74.3525ZM74.3525 59.0103V60.2193H73.1434V59.0103H74.3525ZM74.3525 57.8012V59.0103H73.1434V57.8012H74.3525ZM74.3525 56.5921V57.8012H73.1434V56.5921H74.3525ZM70.7252 56.5921V57.8012H69.5162V56.5921H70.7252ZM71.9343 56.5921V57.8012H70.7252V56.5921H71.9343ZM71.9343 57.8012V59.0103H70.7252V57.8012H71.9343ZM71.9343 59.0103V60.2193H70.7252V59.0103H71.9343ZM71.9343 60.2193V61.4284H70.7252V60.2193H71.9343ZM71.9343 61.4284V62.6375H70.7252V61.4284H71.9343ZM84.0252 74.7284V75.9375H82.8161V74.7284H84.0252ZM84.0252 73.5193V74.7284H82.8161V73.5193H84.0252ZM84.0252 72.3102V73.5193H82.8161V72.3102H84.0252ZM84.0252 71.1011V72.3102H82.8161V71.1011H84.0252ZM84.0252 69.8921V71.1011H82.8161V69.8921H84.0252ZM84.0252 68.683V69.8921H82.8161V68.683H84.0252ZM84.0252 67.4739V68.683H82.8161V67.4739H84.0252ZM84.0252 66.2648V67.4739H82.8161V66.2648H84.0252ZM84.0252 65.0557V66.2648H82.8161V65.0557H84.0252ZM84.0252 63.8466V65.0557H82.8161V63.8466H84.0252ZM84.0252 62.6375V63.8466H82.8161V62.6375H84.0252ZM84.0252 61.4284V62.6375H82.8161V61.4284H84.0252ZM84.0252 60.2193V61.4284H82.8161V60.2193H84.0252ZM84.0252 59.0103V60.2193H82.8161V59.0103H84.0252ZM84.0252 57.8012V59.0103H82.8161V57.8012H84.0252ZM85.2343 59.0103V60.2193H84.0252V59.0103H85.2343ZM85.2343 60.2193V61.4284H84.0252V60.2193H85.2343ZM85.2343 61.4284V62.6375H84.0252V61.4284H85.2343ZM85.2343 62.6375V63.8466H84.0252V62.6375H85.2343ZM85.2343 63.8466V65.0557H84.0252V63.8466H85.2343ZM85.2343 65.0557V66.2648H84.0252V65.0557H85.2343ZM86.4434 66.2648V67.4739H85.2343V66.2648H86.4434ZM86.4434 67.4739V68.683H85.2343V67.4739H86.4434ZM86.4434 68.683V69.8921H85.2343V68.683H86.4434ZM86.4434 69.8921V71.1011H85.2343V69.8921H86.4434ZM86.4434 71.1011V72.3102H85.2343V71.1011H86.4434ZM86.4434 72.3102V73.5193H85.2343V72.3102H86.4434ZM86.4434 73.5193V74.7284H85.2343V73.5193H86.4434ZM88.8616 69.8921V71.1011H87.6525V69.8921H88.8616ZM88.8616 68.683V69.8921H87.6525V68.683H88.8616ZM88.8616 67.4739V68.683H87.6525V67.4739H88.8616ZM88.8616 66.2648V67.4739H87.6525V66.2648H88.8616ZM87.6525 66.2648V67.4739H86.4434V66.2648H87.6525ZM87.6525 65.0557V66.2648H86.4434V65.0557H87.6525ZM87.6525 67.4739V68.683H86.4434V67.4739H87.6525ZM87.6525 68.683V69.8921H86.4434V68.683H87.6525ZM87.6525 69.8921V71.1011H86.4434V69.8921H87.6525ZM87.6525 71.1011V72.3102H86.4434V71.1011H87.6525ZM87.6525 72.3102V73.5193H86.4434V72.3102H87.6525ZM85.2343 73.5193V74.7284H84.0252V73.5193H85.2343ZM85.2343 72.3102V73.5193H84.0252V72.3102H85.2343ZM85.2343 71.1011V72.3102H84.0252V71.1011H85.2343ZM85.2343 69.8921V71.1011H84.0252V69.8921H85.2343ZM85.2343 68.683V69.8921H84.0252V68.683H85.2343ZM85.2343 67.4739V68.683H84.0252V67.4739H85.2343ZM85.2343 66.2648V67.4739H84.0252V66.2648H85.2343ZM87.6525 61.4284V62.6375H86.4434V61.4284H87.6525ZM88.8616 62.6375V63.8466H87.6525V62.6375H88.8616ZM88.8616 63.8466V65.0557H87.6525V63.8466H88.8616ZM88.8616 65.0557V66.2648H87.6525V65.0557H88.8616ZM86.4434 59.0103V60.2193H85.2343V59.0103H86.4434ZM86.4434 60.2193V61.4284H85.2343V60.2193H86.4434ZM86.4434 61.4284V62.6375H85.2343V61.4284H86.4434ZM86.4434 62.6375V63.8466H85.2343V62.6375H86.4434ZM86.4434 63.8466V65.0557H85.2343V63.8466H86.4434ZM86.4434 65.0557V66.2648H85.2343V65.0557H86.4434ZM87.6525 63.8466V65.0557H86.4434V63.8466H87.6525ZM87.6525 62.6375V63.8466H86.4434V62.6375H87.6525ZM75.5616 74.7284V75.9375H74.3525V74.7284H75.5616ZM76.7707 74.7284V75.9375H75.5616V74.7284H76.7707ZM77.9798 74.7284V75.9375H76.7707V74.7284H77.9798ZM80.398 74.7284V75.9375H79.1889V74.7284H80.398ZM81.607 74.7284V75.9375H80.398V74.7284H81.607ZM82.8161 74.7284V75.9375H81.607V74.7284H82.8161ZM82.8161 73.5193V74.7284H81.607V73.5193H82.8161ZM81.607 73.5193V74.7284H80.398V73.5193H81.607ZM80.398 73.5193V74.7284H79.1889V73.5193H80.398ZM77.9798 73.5193V74.7284H76.7707V73.5193H77.9798ZM76.7707 73.5193V74.7284H75.5616V73.5193H76.7707ZM75.5616 73.5193V74.7284H74.3525V73.5193H75.5616ZM75.5616 72.3102V73.5193H74.3525V72.3102H75.5616ZM76.7707 72.3102V73.5193H75.5616V72.3102H76.7707ZM77.9798 72.3102V73.5193H76.7707V72.3102H77.9798ZM80.398 72.3102V73.5193H79.1889V72.3102H80.398ZM81.607 72.3102V73.5193H80.398V72.3102H81.607ZM82.8161 72.3102V73.5193H81.607V72.3102H82.8161ZM82.8161 71.1011V72.3102H81.607V71.1011H82.8161ZM81.607 71.1011V72.3102H80.398V71.1011H81.607ZM80.398 71.1011V72.3102H79.1889V71.1011H80.398ZM77.9798 71.1011V72.3102H76.7707V71.1011H77.9798ZM76.7707 71.1011V72.3102H75.5616V71.1011H76.7707ZM75.5616 71.1011V72.3102H74.3525V71.1011H75.5616ZM75.5616 69.8921V71.1011H74.3525V69.8921H75.5616ZM82.8161 69.8921V71.1011H81.607V69.8921H82.8161ZM87.6525 51.7557V50.5466H88.8616V51.7557H87.6525ZM87.6525 52.9648V51.7557H88.8616V52.9648H87.6525ZM87.6525 54.1739V52.9648H88.8616V54.1739H87.6525ZM85.2343 54.1739V52.9648H86.4434V54.1739H85.2343ZM85.2343 52.9648V51.7557H86.4434V52.9648H85.2343ZM85.2343 51.7557V50.5466H86.4434V51.7557H85.2343ZM85.2343 50.5466V49.3375H86.4434V50.5466H85.2343ZM85.2343 49.3375V48.1285H86.4434V49.3375H85.2343ZM85.2343 48.1285V46.9194H86.4434V48.1285H85.2343ZM82.8161 46.9194V45.7103H84.0252V46.9194H82.8161ZM82.8161 48.1285V46.9194H84.0252V48.1285H82.8161ZM82.8161 49.3375V48.1285H84.0252V49.3375H82.8161ZM82.8161 50.5466V49.3375H84.0252V50.5466H82.8161ZM82.8161 51.7557V50.5466H84.0252V51.7557H82.8161ZM82.8161 52.9648V51.7557H84.0252V52.9648H82.8161ZM82.8161 54.1739V52.9648H84.0252V54.1739H82.8161ZM84.0252 54.1739V52.9648H85.2343V54.1739H84.0252ZM84.0252 52.9648V51.7557H85.2343V52.9648H84.0252ZM84.0252 51.7557V50.5466H85.2343V51.7557H84.0252ZM84.0252 50.5466V49.3375H85.2343V50.5466H84.0252ZM84.0252 49.3375V48.1285H85.2343V49.3375H84.0252ZM84.0252 48.1285V46.9194H85.2343V48.1285H84.0252ZM86.4434 49.3375V48.1285H87.6525V49.3375H86.4434ZM86.4434 50.5466V49.3375H87.6525V50.5466H86.4434ZM86.4434 51.7557V50.5466H87.6525V51.7557H86.4434ZM86.4434 52.9648V51.7557H87.6525V52.9648H86.4434ZM86.4434 54.1739V52.9648H87.6525V54.1739H86.4434ZM73.1434 46.9194V45.7103H74.3525V46.9194H73.1434ZM73.1434 48.1285V46.9194H74.3525V48.1285H73.1434ZM73.1434 49.3375V48.1285H74.3525V49.3375H73.1434ZM73.1434 50.5466V49.3375H74.3525V50.5466H73.1434ZM73.1434 51.7557V50.5466H74.3525V51.7557H73.1434ZM73.1434 52.9648V51.7557H74.3525V52.9648H73.1434ZM73.1434 54.1739V52.9648H74.3525V54.1739H73.1434ZM70.7252 54.1739V52.9648H71.9343V54.1739H70.7252ZM70.7252 52.9648V51.7557H71.9343V52.9648H70.7252ZM70.7252 51.7557V50.5466H71.9343V51.7557H70.7252ZM70.7252 50.5466V49.3375H71.9343V50.5466H70.7252ZM70.7252 49.3375V48.1285H71.9343V49.3375H70.7252ZM70.7252 48.1285V46.9194H71.9343V48.1285H70.7252ZM68.3071 51.7557V50.5466H69.5162V51.7557H68.3071ZM68.3071 52.9648V51.7557H69.5162V52.9648H68.3071ZM68.3071 54.1739V52.9648H69.5162V54.1739H68.3071ZM69.5162 54.1739V52.9648H70.7252V54.1739H69.5162ZM69.5162 52.9648V51.7557H70.7252V52.9648H69.5162ZM69.5162 51.7557V50.5466H70.7252V51.7557H69.5162ZM69.5162 50.5466V49.3375H70.7252V50.5466H69.5162ZM69.5162 49.3375V48.1285H70.7252V49.3375H69.5162ZM71.9343 48.1285V46.9194H73.1434V48.1285H71.9343ZM71.9343 49.3375V48.1285H73.1434V49.3375H71.9343ZM71.9343 50.5466V49.3375H73.1434V50.5466H71.9343ZM71.9343 51.7557V50.5466H73.1434V51.7557H71.9343ZM71.9343 52.9648V51.7557H73.1434V52.9648H71.9343ZM71.9343 54.1739V52.9648H73.1434V54.1739H71.9343ZM81.607 46.9194V45.7103H82.8161V46.9194H81.607ZM80.398 46.9194V45.7103H81.607V46.9194H80.398ZM79.1889 46.9194V45.7103H80.398V46.9194H79.1889ZM76.7707 46.9194V45.7103H77.9798V46.9194H76.7707ZM75.5616 46.9194V45.7103H76.7707V46.9194H75.5616ZM74.3525 46.9194V45.7103H75.5616V46.9194H74.3525ZM74.3525 48.1285V46.9194H75.5616V48.1285H74.3525ZM75.5616 48.1285V46.9194H76.7707V48.1285H75.5616ZM76.7707 48.1285V46.9194H77.9798V48.1285H76.7707ZM79.1889 48.1285V46.9194H80.398V48.1285H79.1889ZM80.398 48.1285V46.9194H81.607V48.1285H80.398ZM81.607 48.1285V46.9194H82.8161V48.1285H81.607ZM81.607 49.3375V48.1285H82.8161V49.3375H81.607ZM80.398 49.3375V48.1285H81.607V49.3375H80.398ZM79.1889 49.3375V48.1285H80.398V49.3375H79.1889ZM76.7707 49.3375V48.1285H77.9798V49.3375H76.7707ZM75.5616 49.3375V48.1285H76.7707V49.3375H75.5616ZM74.3525 49.3375V48.1285H75.5616V49.3375H74.3525ZM74.3525 50.5466V49.3375H75.5616V50.5466H74.3525ZM75.5616 50.5466V49.3375H76.7707V50.5466H75.5616ZM76.7707 50.5466V49.3375H77.9798V50.5466H76.7707ZM79.1889 50.5466V49.3375H80.398V50.5466H79.1889ZM80.398 50.5466V49.3375H81.607V50.5466H80.398ZM81.607 50.5466V49.3375H82.8161V50.5466H81.607ZM81.607 51.7557V50.5466H82.8161V51.7557H81.607ZM74.3525 51.7557V50.5466H75.5616V51.7557H74.3525ZM69.5162 55.383V56.5921H68.3071V55.383H69.5162ZM70.7252 55.383V56.5921H69.5162V55.383H70.7252ZM69.5162 54.1739V55.383H68.3071V54.1739H69.5162ZM73.1434 54.1739V55.383H71.9343V54.1739H73.1434ZM73.1434 55.383V56.5921H71.9343V55.383H73.1434ZM74.3525 55.383V56.5921H73.1434V55.383H74.3525ZM74.3525 54.1739V55.383H73.1434V54.1739H74.3525ZM70.7252 54.1739V55.383H69.5162V54.1739H70.7252ZM71.9343 54.1739V55.383H70.7252V54.1739H71.9343ZM71.9343 55.383V56.5921H70.7252V55.383H71.9343ZM76.7707 69.8921V71.1011H75.5616V69.8921H76.7707ZM77.9798 69.8921V71.1011H76.7707V69.8921H77.9798ZM80.398 69.8921V71.1011H79.1889V69.8921H80.398ZM81.607 69.8921V71.1011H80.398V69.8921H81.607ZM82.8161 68.683V69.8921H81.607V68.683H82.8161ZM75.5616 68.683V69.8921H74.3525V68.683H75.5616ZM76.7707 50.5466V51.7557H75.5616V50.5466H76.7707ZM77.9798 50.5466V51.7557H76.7707V50.5466H77.9798ZM80.398 50.5466V51.7557H79.1889V50.5466H80.398ZM81.607 50.5466V51.7557H80.398V50.5466H81.607ZM82.8161 51.7557V52.9648H81.607V51.7557H82.8161ZM75.5616 51.7557V52.9648H74.3525V51.7557H75.5616ZM77.9798 60.2193V61.4284H76.7707V60.2193H77.9798ZM80.398 60.2193V61.4284H79.1889V60.2193H80.398ZM81.607 60.2193V61.4284H80.398V60.2193H81.607ZM82.8161 60.2193V61.4284H81.607V60.2193H82.8161ZM82.8161 61.4284V62.6375H81.607V61.4284H82.8161ZM81.607 61.4284V62.6375H80.398V61.4284H81.607ZM80.398 61.4284V62.6375H79.1889V61.4284H80.398ZM77.9798 61.4284V62.6375H76.7707V61.4284H77.9798ZM77.9798 57.8012V59.0103H76.7707V57.8012H77.9798ZM80.398 57.8012V59.0103H79.1889V57.8012H80.398ZM81.607 57.8012V59.0103H80.398V57.8012H81.607ZM82.8161 57.8012V59.0103H81.607V57.8012H82.8161ZM82.8161 59.0103V60.2193H81.607V59.0103H82.8161ZM81.607 59.0103V60.2193H80.398V59.0103H81.607ZM80.398 59.0103V60.2193H79.1889V59.0103H80.398ZM77.9798 59.0103V60.2193H76.7707V59.0103H77.9798ZM77.9798 62.6375V63.8466H76.7707V62.6375H77.9798ZM80.398 62.6375V63.8466H79.1889V62.6375H80.398ZM81.607 62.6375V63.8466H80.398V62.6375H81.607ZM82.8161 62.6375V63.8466H81.607V62.6375H82.8161ZM87.6525 60.2193V61.4284H86.4434V60.2193H87.6525ZM82.8161 63.8466V65.0557H81.607V63.8466H82.8161ZM75.5616 57.8012V59.0103H74.3525V57.8012H75.5616ZM76.7707 57.8012V59.0103H75.5616V57.8012H76.7707ZM75.5616 56.5921V57.8012H74.3525V56.5921H75.5616ZM76.7707 59.0103V60.2193H75.5616V59.0103H76.7707ZM76.7707 60.2193V61.4284H75.5616V60.2193H76.7707ZM76.7707 61.4284V62.6375H75.5616V61.4284H76.7707ZM76.7707 62.6375V63.8466H75.5616V62.6375H76.7707ZM75.5616 62.6375V63.8466H74.3525V62.6375H75.5616ZM75.5616 61.4284V62.6375H74.3525V61.4284H75.5616ZM75.5616 60.2193V61.4284H74.3525V60.2193H75.5616ZM75.5616 59.0103V60.2193H74.3525V59.0103H75.5616ZM79.1889 45.7103V46.9194H77.9798V45.7103H79.1889ZM79.1889 46.9194V48.1285H77.9798V46.9194H79.1889ZM79.1889 48.1285V49.3375H77.9798V48.1285H79.1889ZM79.1889 49.3375V50.5466H77.9798V49.3375H79.1889ZM79.1889 50.5466V51.7557H77.9798V50.5466H79.1889ZM79.1889 57.8012V59.0103H77.9798V57.8012H79.1889ZM79.1889 59.0103V60.2193H77.9798V59.0103H79.1889ZM79.1889 60.2193V61.4284H77.9798V60.2193H79.1889ZM79.1889 61.4284V62.6375H77.9798V61.4284H79.1889ZM79.1889 62.6375V63.8466H77.9798V62.6375H79.1889ZM79.1889 69.8921V71.1011H77.9798V69.8921H79.1889ZM79.1889 71.1011V72.3102H77.9798V71.1011H79.1889ZM79.1889 72.3102V73.5193H77.9798V72.3102H79.1889ZM79.1889 73.5193V74.7284H77.9798V73.5193H79.1889ZM79.1889 74.7284V75.9375H77.9798V74.7284H79.1889ZM100.929 74.7284V75.9375H99.7198V74.7284H100.929ZM100.929 73.5193V74.7284H99.7198V73.5193H100.929ZM100.929 72.3102V73.5193H99.7198V72.3102H100.929ZM100.929 71.1011V72.3102H99.7198V71.1011H100.929ZM100.929 69.8921V71.1011H99.7198V69.8921H100.929ZM100.929 68.683V69.8921H99.7198V68.683H100.929ZM100.929 67.4739V68.683H99.7198V67.4739H100.929ZM100.929 66.2648V67.4739H99.7198V66.2648H100.929ZM100.929 65.0557V66.2648H99.7198V65.0557H100.929ZM100.929 63.8466V65.0557H99.7198V63.8466H100.929ZM100.929 62.6375V63.8466H99.7198V62.6375H100.929ZM100.929 61.4284V62.6375H99.7198V61.4284H100.929ZM100.929 60.2193V61.4284H99.7198V60.2193H100.929ZM100.929 59.0103V60.2193H99.7198V59.0103H100.929ZM100.929 57.8012V59.0103H99.7198V57.8012H100.929ZM102.138 57.8012V59.0103H100.929V57.8012H102.138ZM102.138 59.0103V60.2193H100.929V59.0103H102.138ZM102.138 60.2193V61.4284H100.929V60.2193H102.138ZM102.138 61.4284V62.6375H100.929V61.4284H102.138ZM102.138 62.6375V63.8466H100.929V62.6375H102.138ZM102.138 63.8466V65.0557H100.929V63.8466H102.138ZM102.138 65.0557V66.2648H100.929V65.0557H102.138ZM103.347 66.2648V67.4739H102.138V66.2648H103.347ZM103.347 67.4739V68.683H102.138V67.4739H103.347ZM103.347 68.683V69.8921H102.138V68.683H103.347ZM103.347 69.8921V71.1011H102.138V69.8921H103.347ZM103.347 71.1011V72.3102H102.138V71.1011H103.347ZM103.347 72.3102V73.5193H102.138V72.3102H103.347ZM103.347 73.5193V74.7284H102.138V73.5193H103.347ZM103.347 74.7284V75.9375H102.138V74.7284H103.347ZM104.556 74.7284V75.9375H103.347V74.7284H104.556ZM105.765 74.7284V75.9375H104.556V74.7284H105.765ZM105.765 73.5193V74.7284H104.556V73.5193H105.765ZM105.765 72.3102V73.5193H104.556V72.3102H105.765ZM105.765 71.1011V72.3102H104.556V71.1011H105.765ZM105.765 69.8921V71.1011H104.556V69.8921H105.765ZM105.765 68.683V69.8921H104.556V68.683H105.765ZM105.765 67.4739V68.683H104.556V67.4739H105.765ZM105.765 66.2648V67.4739H104.556V66.2648H105.765ZM104.556 66.2648V67.4739H103.347V66.2648H104.556ZM104.556 65.0557V66.2648H103.347V65.0557H104.556ZM104.556 67.4739V68.683H103.347V67.4739H104.556ZM104.556 68.683V69.8921H103.347V68.683H104.556ZM104.556 69.8921V71.1011H103.347V69.8921H104.556ZM104.556 71.1011V72.3102H103.347V71.1011H104.556ZM104.556 72.3102V73.5193H103.347V72.3102H104.556ZM104.556 73.5193V74.7284H103.347V73.5193H104.556ZM102.138 74.7284V75.9375H100.929V74.7284H102.138ZM102.138 73.5193V74.7284H100.929V73.5193H102.138ZM102.138 72.3102V73.5193H100.929V72.3102H102.138ZM102.138 71.1011V72.3102H100.929V71.1011H102.138ZM102.138 69.8921V71.1011H100.929V69.8921H102.138ZM102.138 68.683V69.8921H100.929V68.683H102.138ZM102.138 67.4739V68.683H100.929V67.4739H102.138ZM102.138 66.2648V67.4739H100.929V66.2648H102.138ZM100.929 45.7103V46.9194H99.7198V45.7103H100.929ZM100.929 46.9194V48.1285H99.7198V46.9194H100.929ZM100.929 48.1285V49.3375H99.7198V48.1285H100.929ZM100.929 49.3375V50.5466H99.7198V49.3375H100.929ZM100.929 50.5466V51.7557H99.7198V50.5466H100.929ZM100.929 51.7557V52.9648H99.7198V51.7557H100.929ZM100.929 52.9648V54.1739H99.7198V52.9648H100.929ZM100.929 54.1739V55.383H99.7198V54.1739H100.929ZM100.929 55.383V56.5921H99.7198V55.383H100.929ZM100.929 56.5921V57.8012H99.7198V56.5921H100.929ZM104.556 45.7103V46.9194H103.347V45.7103H104.556ZM104.556 46.9194V48.1285H103.347V46.9194H104.556ZM104.556 48.1285V49.3375H103.347V48.1285H104.556ZM104.556 49.3375V50.5466H103.347V49.3375H104.556ZM104.556 50.5466V51.7557H103.347V50.5466H104.556ZM104.556 51.7557V52.9648H103.347V51.7557H104.556ZM104.556 54.1739V55.383H103.347V54.1739H104.556ZM104.556 55.383V56.5921H103.347V55.383H104.556ZM104.556 56.5921V57.8012H103.347V56.5921H104.556ZM104.556 57.8012V59.0103H103.347V57.8012H104.556ZM104.556 59.0103V60.2193H103.347V59.0103H104.556ZM104.556 60.2193V61.4284H103.347V60.2193H104.556ZM104.556 61.4284V62.6375H103.347V61.4284H104.556ZM105.765 62.6375V63.8466H104.556V62.6375H105.765ZM105.765 63.8466V65.0557H104.556V63.8466H105.765ZM105.765 65.0557V66.2648H104.556V65.0557H105.765ZM105.765 61.4284V62.6375H104.556V61.4284H105.765ZM105.765 60.2193V61.4284H104.556V60.2193H105.765ZM105.765 59.0103V60.2193H104.556V59.0103H105.765ZM105.765 57.8012V59.0103H104.556V57.8012H105.765ZM105.765 56.5921V57.8012H104.556V56.5921H105.765ZM105.765 55.383V56.5921H104.556V55.383H105.765ZM105.765 54.1739V55.383H104.556V54.1739H105.765ZM105.765 52.9648V54.1739H104.556V52.9648H105.765ZM105.765 51.7557V52.9648H104.556V51.7557H105.765ZM105.765 50.5466V51.7557H104.556V50.5466H105.765ZM104.556 52.9648V54.1739H103.347V52.9648H104.556ZM105.765 49.3375V50.5466H104.556V49.3375H105.765ZM105.765 48.1285V49.3375H104.556V48.1285H105.765ZM105.765 46.9194V48.1285H104.556V46.9194H105.765ZM105.765 45.7103V46.9194H104.556V45.7103H105.765ZM103.347 45.7103V46.9194H102.138V45.7103H103.347ZM102.138 45.7103V46.9194H100.929V45.7103H102.138ZM102.138 46.9194V48.1285H100.929V46.9194H102.138ZM103.347 46.9194V48.1285H102.138V46.9194H103.347ZM103.347 48.1285V49.3375H102.138V48.1285H103.347ZM103.347 49.3375V50.5466H102.138V49.3375H103.347ZM103.347 50.5466V51.7557H102.138V50.5466H103.347ZM103.347 51.7557V52.9648H102.138V51.7557H103.347ZM103.347 52.9648V54.1739H102.138V52.9648H103.347ZM103.347 54.1739V55.383H102.138V54.1739H103.347ZM102.138 55.383V56.5921H100.929V55.383H102.138ZM102.138 56.5921V57.8012H100.929V56.5921H102.138ZM102.138 54.1739V55.383H100.929V54.1739H102.138ZM102.138 52.9648V54.1739H100.929V52.9648H102.138ZM102.138 51.7557V52.9648H100.929V51.7557H102.138ZM102.138 50.5466V51.7557H100.929V50.5466H102.138ZM102.138 49.3375V50.5466H100.929V49.3375H102.138ZM102.138 48.1285V49.3375H100.929V48.1285H102.138ZM103.347 55.383V56.5921H102.138V55.383H103.347ZM103.347 56.5921V57.8012H102.138V56.5921H103.347ZM103.347 57.8012V59.0103H102.138V57.8012H103.347ZM103.347 59.0103V60.2193H102.138V59.0103H103.347ZM103.347 60.2193V61.4284H102.138V60.2193H103.347ZM103.347 61.4284V62.6375H102.138V61.4284H103.347ZM103.347 62.6375V63.8466H102.138V62.6375H103.347ZM103.347 63.8466V65.0557H102.138V63.8466H103.347ZM103.347 65.0557V66.2648H102.138V65.0557H103.347ZM104.556 63.8466V65.0557H103.347V63.8466H104.556ZM104.556 62.6375V63.8466H103.347V62.6375H104.556ZM99.7198 45.7103V46.9194H98.5107V45.7103H99.7198ZM98.5107 45.7103V46.9194H97.3016V45.7103H98.5107ZM97.3016 45.7103V46.9194H96.0925V45.7103H97.3016ZM96.0925 45.7103V46.9194H94.8834V45.7103H96.0925ZM94.8834 45.7103V46.9194H93.6743V45.7103H94.8834ZM94.8834 46.9194V48.1285H93.6743V46.9194H94.8834ZM94.8834 48.1285V49.3375H93.6743V48.1285H94.8834ZM96.0925 46.9194V48.1285H94.8834V46.9194H96.0925ZM97.3016 46.9194V48.1285H96.0925V46.9194H97.3016ZM98.5107 46.9194V48.1285H97.3016V46.9194H98.5107ZM99.7198 48.1285V49.3375H98.5107V48.1285H99.7198ZM99.7198 46.9194V48.1285H98.5107V46.9194H99.7198ZM98.5107 48.1285V49.3375H97.3016V48.1285H98.5107ZM97.3016 48.1285V49.3375H96.0925V48.1285H97.3016ZM96.0925 48.1285V49.3375H94.8834V48.1285H96.0925ZM106.974 45.7103V46.9194H105.765V45.7103H106.974ZM108.183 45.7103V46.9194H106.974V45.7103H108.183ZM109.392 45.7103V46.9194H108.183V45.7103H109.392ZM110.602 45.7103V46.9194H109.392V45.7103H110.602ZM111.811 45.7103V46.9194H110.602V45.7103H111.811ZM111.811 46.9194V48.1285H110.602V46.9194H111.811ZM110.602 46.9194V48.1285H109.392V46.9194H110.602ZM109.392 46.9194V48.1285H108.183V46.9194H109.392ZM108.183 46.9194V48.1285H106.974V46.9194H108.183ZM106.974 46.9194V48.1285H105.765V46.9194H106.974ZM106.974 48.1285V49.3375H105.765V48.1285H106.974ZM108.183 48.1285V49.3375H106.974V48.1285H108.183ZM109.392 48.1285V49.3375H108.183V48.1285H109.392ZM110.602 48.1285V49.3375H109.392V48.1285H110.602ZM111.811 48.1285V49.3375H110.602V48.1285H111.811ZM94.8834 49.3375V50.5466H93.6743V49.3375H94.8834ZM94.8834 50.5466V51.7557H93.6743V50.5466H94.8834ZM96.0925 50.5466V51.7557H94.8834V50.5466H96.0925ZM97.3016 50.5466V51.7557H96.0925V50.5466H97.3016ZM98.5107 50.5466V51.7557H97.3016V50.5466H98.5107ZM99.7198 50.5466V51.7557H98.5107V50.5466H99.7198ZM99.7198 49.3375V50.5466H98.5107V49.3375H99.7198ZM98.5107 49.3375V50.5466H97.3016V49.3375H98.5107ZM97.3016 49.3375V50.5466H96.0925V49.3375H97.3016ZM96.0925 49.3375V50.5466H94.8834V49.3375H96.0925ZM111.811 49.3375V50.5466H110.602V49.3375H111.811ZM111.811 50.5466V51.7557H110.602V50.5466H111.811ZM110.602 50.5466V51.7557H109.392V50.5466H110.602ZM109.392 50.5466V51.7557H108.183V50.5466H109.392ZM108.183 50.5466V51.7557H106.974V50.5466H108.183ZM106.974 50.5466V51.7557H105.765V50.5466H106.974ZM106.974 49.3375V50.5466H105.765V49.3375H106.974ZM108.183 49.3375V50.5466H106.974V49.3375H108.183ZM109.392 49.3375V50.5466H108.183V49.3375H109.392ZM110.602 49.3375V50.5466H109.392V49.3375H110.602ZM117.879 74.7284V75.9375H116.669V74.7284H117.879ZM117.879 73.5193V74.7284H116.669V73.5193H117.879ZM117.879 72.3102V73.5193H116.669V72.3102H117.879ZM117.879 71.1011V72.3102H116.669V71.1011H117.879ZM117.879 69.8921V71.1011H116.669V69.8921H117.879ZM117.879 68.683V69.8921H116.669V68.683H117.879ZM117.879 67.4739V68.683H116.669V67.4739H117.879ZM117.879 66.2648V67.4739H116.669V66.2648H117.879ZM117.879 65.0557V66.2648H116.669V65.0557H117.879ZM117.879 63.8466V65.0557H116.669V63.8466H117.879ZM117.879 62.6375V63.8466H116.669V62.6375H117.879ZM117.879 61.4284V62.6375H116.669V61.4284H117.879ZM117.879 60.2193V61.4284H116.669V60.2193H117.879ZM117.879 59.0103V60.2193H116.669V59.0103H117.879ZM117.879 57.8012V59.0103H116.669V57.8012H117.879ZM119.088 57.8012V59.0103H117.879V57.8012H119.088ZM119.088 59.0103V60.2193H117.879V59.0103H119.088ZM119.088 60.2193V61.4284H117.879V60.2193H119.088ZM119.088 61.4284V62.6375H117.879V61.4284H119.088ZM119.088 62.6375V63.8466H117.879V62.6375H119.088ZM119.088 63.8466V65.0557H117.879V63.8466H119.088ZM119.088 65.0557V66.2648H117.879V65.0557H119.088ZM120.297 66.2648V67.4739H119.088V66.2648H120.297ZM120.297 67.4739V68.683H119.088V67.4739H120.297ZM120.297 68.683V69.8921H119.088V68.683H120.297ZM120.297 69.8921V71.1011H119.088V69.8921H120.297ZM120.297 71.1011V72.3102H119.088V71.1011H120.297ZM120.297 72.3102V73.5193H119.088V72.3102H120.297ZM120.297 73.5193V74.7284H119.088V73.5193H120.297ZM120.297 74.7284V75.9375H119.088V74.7284H120.297ZM121.506 74.7284V75.9375H120.297V74.7284H121.506ZM122.715 74.7284V75.9375H121.506V74.7284H122.715ZM122.715 73.5193V74.7284H121.506V73.5193H122.715ZM122.715 72.3102V73.5193H121.506V72.3102H122.715ZM122.715 71.1011V72.3102H121.506V71.1011H122.715ZM122.715 69.8921V71.1011H121.506V69.8921H122.715ZM122.715 68.683V69.8921H121.506V68.683H122.715ZM122.715 67.4739V68.683H121.506V67.4739H122.715ZM122.715 66.2648V67.4739H121.506V66.2648H122.715ZM121.506 66.2648V67.4739H120.297V66.2648H121.506ZM121.506 65.0557V66.2648H120.297V65.0557H121.506ZM121.506 67.4739V68.683H120.297V67.4739H121.506ZM121.506 68.683V69.8921H120.297V68.683H121.506ZM121.506 69.8921V71.1011H120.297V69.8921H121.506ZM121.506 71.1011V72.3102H120.297V71.1011H121.506ZM121.506 72.3102V73.5193H120.297V72.3102H121.506ZM121.506 73.5193V74.7284H120.297V73.5193H121.506ZM119.088 74.7284V75.9375H117.879V74.7284H119.088ZM119.088 73.5193V74.7284H117.879V73.5193H119.088ZM119.088 72.3102V73.5193H117.879V72.3102H119.088ZM119.088 71.1011V72.3102H117.879V71.1011H119.088ZM119.088 69.8921V71.1011H117.879V69.8921H119.088ZM119.088 68.683V69.8921H117.879V68.683H119.088ZM119.088 67.4739V68.683H117.879V67.4739H119.088ZM119.088 66.2648V67.4739H117.879V66.2648H119.088ZM117.879 54.1739V55.383H116.669V54.1739H117.879ZM117.879 55.383V56.5921H116.669V55.383H117.879ZM117.879 56.5921V57.8012H116.669V56.5921H117.879ZM121.506 51.7557V52.9648H120.297V51.7557H121.506ZM121.506 54.1739V55.383H120.297V54.1739H121.506ZM121.506 55.383V56.5921H120.297V55.383H121.506ZM121.506 56.5921V57.8012H120.297V56.5921H121.506ZM121.506 57.8012V59.0103H120.297V57.8012H121.506ZM121.506 59.0103V60.2193H120.297V59.0103H121.506ZM121.506 60.2193V61.4284H120.297V60.2193H121.506ZM121.506 61.4284V62.6375H120.297V61.4284H121.506ZM122.715 62.6375V63.8466H121.506V62.6375H122.715ZM122.715 63.8466V65.0557H121.506V63.8466H122.715ZM122.715 65.0557V66.2648H121.506V65.0557H122.715ZM122.715 61.4284V62.6375H121.506V61.4284H122.715ZM122.715 60.2193V61.4284H121.506V60.2193H122.715ZM122.715 59.0103V60.2193H121.506V59.0103H122.715ZM122.715 57.8012V59.0103H121.506V57.8012H122.715ZM122.715 56.5921V57.8012H121.506V56.5921H122.715ZM122.715 55.383V56.5921H121.506V55.383H122.715ZM122.715 54.1739V55.383H121.506V54.1739H122.715ZM122.715 52.9648V54.1739H121.506V52.9648H122.715ZM122.715 51.7557V52.9648H121.506V51.7557H122.715ZM122.715 50.5466V51.7557H121.506V50.5466H122.715ZM121.506 52.9648V54.1739H120.297V52.9648H121.506ZM122.715 49.3375V50.5466H121.506V49.3375H122.715ZM122.715 48.1285V49.3375H121.506V48.1285H122.715ZM120.297 51.7557V52.9648H119.088V51.7557H120.297ZM120.297 52.9648V54.1739H119.088V52.9648H120.297ZM120.297 54.1739V55.383H119.088V54.1739H120.297ZM119.088 55.383V56.5921H117.879V55.383H119.088ZM119.088 56.5921V57.8012H117.879V56.5921H119.088ZM119.088 54.1739V55.383H117.879V54.1739H119.088ZM119.088 52.9648V54.1739H117.879V52.9648H119.088ZM120.297 55.383V56.5921H119.088V55.383H120.297ZM120.297 56.5921V57.8012H119.088V56.5921H120.297ZM120.297 57.8012V59.0103H119.088V57.8012H120.297ZM120.297 59.0103V60.2193H119.088V59.0103H120.297ZM120.297 60.2193V61.4284H119.088V60.2193H120.297ZM120.297 61.4284V62.6375H119.088V61.4284H120.297ZM120.297 62.6375V63.8466H119.088V62.6375H120.297ZM120.297 63.8466V65.0557H119.088V63.8466H120.297ZM120.297 65.0557V66.2648H119.088V65.0557H120.297ZM121.506 63.8466V65.0557H120.297V63.8466H121.506ZM121.506 62.6375V63.8466H120.297V62.6375H121.506ZM131.179 74.7284V75.9375H129.969V74.7284H131.179ZM131.179 73.5193V74.7284H129.969V73.5193H131.179ZM131.179 72.3102V73.5193H129.969V72.3102H131.179ZM131.179 71.1011V72.3102H129.969V71.1011H131.179ZM131.179 69.8921V71.1011H129.969V69.8921H131.179ZM131.179 68.683V69.8921H129.969V68.683H131.179ZM131.179 67.4739V68.683H129.969V67.4739H131.179ZM131.179 66.2648V67.4739H129.969V66.2648H131.179ZM131.179 65.0557V66.2648H129.969V65.0557H131.179ZM131.179 63.8466V65.0557H129.969V63.8466H131.179ZM131.179 62.6375V63.8466H129.969V62.6375H131.179ZM131.179 61.4284V62.6375H129.969V61.4284H131.179ZM131.179 60.2193V61.4284H129.969V60.2193H131.179ZM131.179 59.0103V60.2193H129.969V59.0103H131.179ZM131.179 57.8012V59.0103H129.969V57.8012H131.179ZM132.388 57.8012V59.0103H131.179V57.8012H132.388ZM132.388 59.0103V60.2193H131.179V59.0103H132.388ZM132.388 60.2193V61.4284H131.179V60.2193H132.388ZM132.388 61.4284V62.6375H131.179V61.4284H132.388ZM132.388 62.6375V63.8466H131.179V62.6375H132.388ZM132.388 63.8466V65.0557H131.179V63.8466H132.388ZM132.388 65.0557V66.2648H131.179V65.0557H132.388ZM133.597 66.2648V67.4739H132.388V66.2648H133.597ZM133.597 67.4739V68.683H132.388V67.4739H133.597ZM133.597 68.683V69.8921H132.388V68.683H133.597ZM133.597 69.8921V71.1011H132.388V69.8921H133.597ZM133.597 71.1011V72.3102H132.388V71.1011H133.597ZM133.597 72.3102V73.5193H132.388V72.3102H133.597ZM133.597 73.5193V74.7284H132.388V73.5193H133.597ZM133.597 74.7284V75.9375H132.388V74.7284H133.597ZM134.806 74.7284V75.9375H133.597V74.7284H134.806ZM136.015 74.7284V75.9375H134.806V74.7284H136.015ZM136.015 73.5193V74.7284H134.806V73.5193H136.015ZM136.015 72.3102V73.5193H134.806V72.3102H136.015ZM136.015 71.1011V72.3102H134.806V71.1011H136.015ZM136.015 69.8921V71.1011H134.806V69.8921H136.015ZM136.015 68.683V69.8921H134.806V68.683H136.015ZM136.015 67.4739V68.683H134.806V67.4739H136.015ZM136.015 66.2648V67.4739H134.806V66.2648H136.015ZM134.806 66.2648V67.4739H133.597V66.2648H134.806ZM134.806 65.0557V66.2648H133.597V65.0557H134.806ZM134.806 67.4739V68.683H133.597V67.4739H134.806ZM134.806 68.683V69.8921H133.597V68.683H134.806ZM134.806 69.8921V71.1011H133.597V69.8921H134.806ZM134.806 71.1011V72.3102H133.597V71.1011H134.806ZM134.806 72.3102V73.5193H133.597V72.3102H134.806ZM134.806 73.5193V74.7284H133.597V73.5193H134.806ZM132.388 74.7284V75.9375H131.179V74.7284H132.388ZM132.388 73.5193V74.7284H131.179V73.5193H132.388ZM132.388 72.3102V73.5193H131.179V72.3102H132.388ZM132.388 71.1011V72.3102H131.179V71.1011H132.388ZM132.388 69.8921V71.1011H131.179V69.8921H132.388ZM132.388 68.683V69.8921H131.179V68.683H132.388ZM132.388 67.4739V68.683H131.179V67.4739H132.388ZM132.388 66.2648V67.4739H131.179V66.2648H132.388ZM131.179 48.1285V49.3375H129.969V48.1285H131.179ZM131.179 49.3375V50.5466H129.969V49.3375H131.179ZM131.179 50.5466V51.7557H129.969V50.5466H131.179ZM131.179 51.7557V52.9648H129.969V51.7557H131.179ZM131.179 52.9648V54.1739H129.969V52.9648H131.179ZM131.179 54.1739V55.383H129.969V54.1739H131.179ZM131.179 55.383V56.5921H129.969V55.383H131.179ZM131.179 56.5921V57.8012H129.969V56.5921H131.179ZM134.806 51.7557V52.9648H133.597V51.7557H134.806ZM134.806 54.1739V55.383H133.597V54.1739H134.806ZM134.806 55.383V56.5921H133.597V55.383H134.806ZM134.806 56.5921V57.8012H133.597V56.5921H134.806ZM134.806 57.8012V59.0103H133.597V57.8012H134.806ZM134.806 59.0103V60.2193H133.597V59.0103H134.806ZM134.806 60.2193V61.4284H133.597V60.2193H134.806ZM134.806 61.4284V62.6375H133.597V61.4284H134.806ZM136.015 62.6375V63.8466H134.806V62.6375H136.015ZM136.015 63.8466V65.0557H134.806V63.8466H136.015ZM136.015 65.0557V66.2648H134.806V65.0557H136.015ZM136.015 61.4284V62.6375H134.806V61.4284H136.015ZM136.015 60.2193V61.4284H134.806V60.2193H136.015ZM136.015 59.0103V60.2193H134.806V59.0103H136.015ZM136.015 57.8012V59.0103H134.806V57.8012H136.015ZM136.015 56.5921V57.8012H134.806V56.5921H136.015ZM136.015 55.383V56.5921H134.806V55.383H136.015ZM136.015 54.1739V55.383H134.806V54.1739H136.015ZM136.015 52.9648V54.1739H134.806V52.9648H136.015ZM134.806 52.9648V54.1739H133.597V52.9648H134.806ZM133.597 50.5466V51.7557H132.388V50.5466H133.597ZM133.597 51.7557V52.9648H132.388V51.7557H133.597ZM133.597 52.9648V54.1739H132.388V52.9648H133.597ZM133.597 54.1739V55.383H132.388V54.1739H133.597ZM132.388 55.383V56.5921H131.179V55.383H132.388ZM132.388 56.5921V57.8012H131.179V56.5921H132.388ZM132.388 54.1739V55.383H131.179V54.1739H132.388ZM132.388 52.9648V54.1739H131.179V52.9648H132.388ZM132.388 51.7557V52.9648H131.179V51.7557H132.388ZM132.388 50.5466V51.7557H131.179V50.5466H132.388ZM132.388 49.3375V50.5466H131.179V49.3375H132.388ZM133.597 55.383V56.5921H132.388V55.383H133.597ZM133.597 56.5921V57.8012H132.388V56.5921H133.597ZM133.597 57.8012V59.0103H132.388V57.8012H133.597ZM133.597 59.0103V60.2193H132.388V59.0103H133.597ZM133.597 60.2193V61.4284H132.388V60.2193H133.597ZM133.597 61.4284V62.6375H132.388V61.4284H133.597ZM133.597 62.6375V63.8466H132.388V62.6375H133.597ZM133.597 63.8466V65.0557H132.388V63.8466H133.597ZM133.597 65.0557V66.2648H132.388V65.0557H133.597ZM134.806 63.8466V65.0557H133.597V63.8466H134.806ZM134.806 62.6375V63.8466H133.597V62.6375H134.806ZM125.133 45.7103V46.9194H123.924V45.7103H125.133ZM126.342 45.7103V46.9194H125.133V45.7103H126.342ZM127.551 45.7103V46.9194H126.342V45.7103H127.551ZM128.76 45.7103V46.9194H127.551V45.7103H128.76ZM129.969 46.9194V48.1285H128.76V46.9194H129.969ZM128.76 46.9194V48.1285H127.551V46.9194H128.76ZM127.551 46.9194V48.1285H126.342V46.9194H127.551ZM126.342 46.9194V48.1285H125.133V46.9194H126.342ZM125.133 46.9194V48.1285H123.924V46.9194H125.133ZM123.924 46.9194V48.1285H122.715V46.9194H123.924ZM123.924 48.1285V49.3375H122.715V48.1285H123.924ZM123.924 49.3375V50.5466H122.715V49.3375H123.924ZM125.133 48.1285V49.3375H123.924V48.1285H125.133ZM126.342 48.1285V49.3375H125.133V48.1285H126.342ZM127.551 48.1285V49.3375H126.342V48.1285H127.551ZM128.76 48.1285V49.3375H127.551V48.1285H128.76ZM129.969 48.1285V49.3375H128.76V48.1285H129.969ZM129.969 49.3375V50.5466H128.76V49.3375H129.969ZM128.76 49.3375V50.5466H127.551V49.3375H128.76ZM127.551 49.3375V50.5466H126.342V49.3375H127.551ZM126.342 49.3375V50.5466H125.133V49.3375H126.342ZM125.133 49.3375V50.5466H123.924V49.3375H125.133ZM123.924 50.5466V51.7557H122.715V50.5466H123.924ZM125.133 50.5466V51.7557H123.924V50.5466H125.133ZM129.969 50.5466V51.7557H128.76V50.5466H129.969ZM128.76 50.5466V51.7557H127.551V50.5466H128.76ZM129.969 51.7557V52.9648H128.76V51.7557H129.969ZM123.924 51.7557V52.9648H122.715V51.7557H123.924ZM121.506 49.3375V50.5466H120.297V49.3375H121.506ZM121.506 50.5466V51.7557H120.297V50.5466H121.506ZM120.297 50.5466V51.7557H119.088V50.5466H120.297ZM119.088 51.7557V52.9648H117.879V51.7557H119.088ZM117.879 52.9648V54.1739H116.669V52.9648H117.879ZM123.924 52.9648V54.1739H122.715V52.9648H123.924ZM125.133 51.7557V52.9648H123.924V51.7557H125.133ZM126.342 50.5466V51.7557H125.133V50.5466H126.342ZM127.551 50.5466V51.7557H126.342V50.5466H127.551ZM128.76 51.7557V52.9648H127.551V51.7557H128.76ZM129.969 52.9648V54.1739H128.76V52.9648H129.969ZM123.924 67.4739V68.683H122.715V67.4739H123.924ZM125.133 67.4739V68.683H123.924V67.4739H125.133ZM126.342 67.4739V68.683H125.133V67.4739H126.342ZM127.551 67.4739V68.683H126.342V67.4739H127.551ZM128.76 67.4739V68.683H127.551V67.4739H128.76ZM129.969 67.4739V68.683H128.76V67.4739H129.969ZM129.969 66.2648V67.4739H128.76V66.2648H129.969ZM128.76 66.2648V67.4739H127.551V66.2648H128.76ZM127.551 66.2648V67.4739H126.342V66.2648H127.551ZM126.342 66.2648V67.4739H125.133V66.2648H126.342ZM125.133 66.2648V67.4739H123.924V66.2648H125.133ZM123.924 66.2648V67.4739H122.715V66.2648H123.924ZM123.924 65.0557V66.2648H122.715V65.0557H123.924ZM125.133 65.0557V66.2648H123.924V65.0557H125.133ZM126.342 65.0557V66.2648H125.133V65.0557H126.342ZM127.551 65.0557V66.2648H126.342V65.0557H127.551ZM128.76 65.0557V66.2648H127.551V65.0557H128.76ZM129.969 65.0557V66.2648H128.76V65.0557H129.969ZM129.969 63.8466V65.0557H128.76V63.8466H129.969ZM128.76 63.8466V65.0557H127.551V63.8466H128.76ZM127.551 63.8466V65.0557H126.342V63.8466H127.551ZM126.342 63.8466V65.0557H125.133V63.8466H126.342ZM125.133 63.8466V65.0557H123.924V63.8466H125.133ZM123.924 63.8466V65.0557H122.715V63.8466H123.924ZM123.924 62.6375V63.8466H122.715V62.6375H123.924ZM125.133 62.6375V63.8466H123.924V62.6375H125.133ZM126.342 62.6375V63.8466H125.133V62.6375H126.342ZM127.551 62.6375V63.8466H126.342V62.6375H127.551ZM128.76 62.6375V63.8466H127.551V62.6375H128.76ZM129.969 62.6375V63.8466H128.76V62.6375H129.969ZM126.342 51.7557V52.9648H125.133V51.7557H126.342ZM127.551 51.7557V52.9648H126.342V51.7557H127.551ZM125.133 52.9648V54.1739H123.924V52.9648H125.133ZM123.924 54.1739V55.383H122.715V54.1739H123.924ZM128.76 52.9648V54.1739H127.551V52.9648H128.76ZM129.969 54.1739V55.383H128.76V54.1739H129.969ZM142.084 74.7284V75.9375H140.875V74.7284H142.084ZM142.084 73.5193V74.7284H140.875V73.5193H142.084ZM142.084 72.3102V73.5193H140.875V72.3102H142.084ZM142.084 71.1011V72.3102H140.875V71.1011H142.084ZM142.084 69.8921V71.1011H140.875V69.8921H142.084ZM142.084 68.683V69.8921H140.875V68.683H142.084ZM142.084 67.4739V68.683H140.875V67.4739H142.084ZM142.084 66.2648V67.4739H140.875V66.2648H142.084ZM142.084 65.0557V66.2648H140.875V65.0557H142.084ZM142.084 63.8466V65.0557H140.875V63.8466H142.084ZM142.084 62.6375V63.8466H140.875V62.6375H142.084ZM142.084 61.4284V62.6375H140.875V61.4284H142.084ZM142.084 60.2193V61.4284H140.875V60.2193H142.084ZM142.084 59.0103V60.2193H140.875V59.0103H142.084ZM142.084 57.8012V59.0103H140.875V57.8012H142.084ZM143.293 57.8012V59.0103H142.084V57.8012H143.293ZM143.293 59.0103V60.2193H142.084V59.0103H143.293ZM143.293 60.2193V61.4284H142.084V60.2193H143.293ZM143.293 61.4284V62.6375H142.084V61.4284H143.293ZM143.293 62.6375V63.8466H142.084V62.6375H143.293ZM143.293 63.8466V65.0557H142.084V63.8466H143.293ZM143.293 65.0557V66.2648H142.084V65.0557H143.293ZM144.502 66.2648V67.4739H143.293V66.2648H144.502ZM144.502 67.4739V68.683H143.293V67.4739H144.502ZM144.502 68.683V69.8921H143.293V68.683H144.502ZM144.502 69.8921V71.1011H143.293V69.8921H144.502ZM144.502 71.1011V72.3102H143.293V71.1011H144.502ZM144.502 72.3102V73.5193H143.293V72.3102H144.502ZM144.502 73.5193V74.7284H143.293V73.5193H144.502ZM144.502 74.7284V75.9375H143.293V74.7284H144.502ZM145.711 74.7284V75.9375H144.502V74.7284H145.711ZM146.92 74.7284V75.9375H145.711V74.7284H146.92ZM146.92 69.8921V71.1011H145.711V69.8921H146.92ZM146.92 68.683V69.8921H145.711V68.683H146.92ZM146.92 67.4739V68.683H145.711V67.4739H146.92ZM146.92 66.2648V67.4739H145.711V66.2648H146.92ZM145.711 66.2648V67.4739H144.502V66.2648H145.711ZM145.711 65.0557V66.2648H144.502V65.0557H145.711ZM145.711 67.4739V68.683H144.502V67.4739H145.711ZM145.711 68.683V69.8921H144.502V68.683H145.711ZM145.711 69.8921V71.1011H144.502V69.8921H145.711ZM145.711 71.1011V72.3102H144.502V71.1011H145.711ZM145.711 72.3102V73.5193H144.502V72.3102H145.711ZM145.711 73.5193V74.7284H144.502V73.5193H145.711ZM143.293 74.7284V75.9375H142.084V74.7284H143.293ZM143.293 73.5193V74.7284H142.084V73.5193H143.293ZM143.293 72.3102V73.5193H142.084V72.3102H143.293ZM143.293 71.1011V72.3102H142.084V71.1011H143.293ZM143.293 69.8921V71.1011H142.084V69.8921H143.293ZM143.293 68.683V69.8921H142.084V68.683H143.293ZM143.293 67.4739V68.683H142.084V67.4739H143.293ZM143.293 66.2648V67.4739H142.084V66.2648H143.293ZM142.084 45.7103V46.9194H140.875V45.7103H142.084ZM142.084 46.9194V48.1285H140.875V46.9194H142.084ZM142.084 48.1285V49.3375H140.875V48.1285H142.084ZM142.084 49.3375V50.5466H140.875V49.3375H142.084ZM142.084 50.5466V51.7557H140.875V50.5466H142.084ZM142.084 51.7557V52.9648H140.875V51.7557H142.084ZM142.084 52.9648V54.1739H140.875V52.9648H142.084ZM142.084 54.1739V55.383H140.875V54.1739H142.084ZM142.084 55.383V56.5921H140.875V55.383H142.084ZM142.084 56.5921V57.8012H140.875V56.5921H142.084ZM145.711 45.7103V46.9194H144.502V45.7103H145.711ZM145.711 46.9194V48.1285H144.502V46.9194H145.711ZM145.711 48.1285V49.3375H144.502V48.1285H145.711ZM145.711 49.3375V50.5466H144.502V49.3375H145.711ZM145.711 50.5466V51.7557H144.502V50.5466H145.711ZM145.711 51.7557V52.9648H144.502V51.7557H145.711ZM145.711 54.1739V55.383H144.502V54.1739H145.711ZM145.711 55.383V56.5921H144.502V55.383H145.711ZM145.711 56.5921V57.8012H144.502V56.5921H145.711ZM145.711 57.8012V59.0103H144.502V57.8012H145.711ZM145.711 59.0103V60.2193H144.502V59.0103H145.711ZM145.711 60.2193V61.4284H144.502V60.2193H145.711ZM145.711 61.4284V62.6375H144.502V61.4284H145.711ZM146.92 62.6375V63.8466H145.711V62.6375H146.92ZM146.92 63.8466V65.0557H145.711V63.8466H146.92ZM146.92 65.0557V66.2648H145.711V65.0557H146.92ZM146.92 61.4284V62.6375H145.711V61.4284H146.92ZM146.92 60.2193V61.4284H145.711V60.2193H146.92ZM146.92 59.0103V60.2193H145.711V59.0103H146.92ZM146.92 57.8012V59.0103H145.711V57.8012H146.92ZM146.92 56.5921V57.8012H145.711V56.5921H146.92ZM146.92 55.383V56.5921H145.711V55.383H146.92ZM146.92 54.1739V55.383H145.711V54.1739H146.92ZM146.92 52.9648V54.1739H145.711V52.9648H146.92ZM146.92 51.7557V52.9648H145.711V51.7557H146.92ZM146.92 50.5466V51.7557H145.711V50.5466H146.92ZM145.711 52.9648V54.1739H144.502V52.9648H145.711ZM146.92 49.3375V50.5466H145.711V49.3375H146.92ZM146.92 48.1285V49.3375H145.711V48.1285H146.92ZM146.92 46.9194V48.1285H145.711V46.9194H146.92ZM146.92 45.7103V46.9194H145.711V45.7103H146.92ZM144.502 45.7103V46.9194H143.293V45.7103H144.502ZM143.293 45.7103V46.9194H142.084V45.7103H143.293ZM143.293 46.9194V48.1285H142.084V46.9194H143.293ZM144.502 46.9194V48.1285H143.293V46.9194H144.502ZM144.502 48.1285V49.3375H143.293V48.1285H144.502ZM144.502 49.3375V50.5466H143.293V49.3375H144.502ZM144.502 50.5466V51.7557H143.293V50.5466H144.502ZM144.502 51.7557V52.9648H143.293V51.7557H144.502ZM144.502 52.9648V54.1739H143.293V52.9648H144.502ZM144.502 54.1739V55.383H143.293V54.1739H144.502ZM143.293 55.383V56.5921H142.084V55.383H143.293ZM143.293 56.5921V57.8012H142.084V56.5921H143.293ZM143.293 54.1739V55.383H142.084V54.1739H143.293ZM143.293 52.9648V54.1739H142.084V52.9648H143.293ZM143.293 51.7557V52.9648H142.084V51.7557H143.293ZM143.293 50.5466V51.7557H142.084V50.5466H143.293ZM143.293 49.3375V50.5466H142.084V49.3375H143.293ZM143.293 48.1285V49.3375H142.084V48.1285H143.293ZM144.502 55.383V56.5921H143.293V55.383H144.502ZM144.502 56.5921V57.8012H143.293V56.5921H144.502ZM144.502 57.8012V59.0103H143.293V57.8012H144.502ZM144.502 59.0103V60.2193H143.293V59.0103H144.502ZM144.502 60.2193V61.4284H143.293V60.2193H144.502ZM144.502 61.4284V62.6375H143.293V61.4284H144.502ZM144.502 62.6375V63.8466H143.293V62.6375H144.502ZM144.502 63.8466V65.0557H143.293V63.8466H144.502ZM144.502 65.0557V66.2648H143.293V65.0557H144.502ZM145.711 63.8466V65.0557H144.502V63.8466H145.711ZM145.711 62.6375V63.8466H144.502V62.6375H145.711ZM148.129 62.6375V63.8466H146.92V62.6375H148.129ZM149.338 62.6375V63.8466H148.129V62.6375H149.338ZM149.338 63.8466V65.0557H148.129V63.8466H149.338ZM148.129 63.8466V65.0557H146.92V63.8466H148.129ZM148.129 60.2193V61.4284H146.92V60.2193H148.129ZM149.338 60.2193V61.4284H148.129V60.2193H149.338ZM148.129 65.0557V66.2648H146.92V65.0557H148.129ZM149.338 65.0557V66.2648H148.129V65.0557H149.338ZM149.338 61.4284V62.6375H148.129V61.4284H149.338ZM148.129 61.4284V62.6375H146.92V61.4284H148.129ZM148.129 45.7103V46.9194H146.92V45.7103H148.129ZM149.338 45.7103V46.9194H148.129V45.7103H149.338ZM149.338 46.9194V48.1285H148.129V46.9194H149.338ZM148.129 46.9194V48.1285H146.92V46.9194H148.129ZM148.129 48.1285V49.3375H146.92V48.1285H148.129ZM149.338 48.1285V49.3375H148.129V48.1285H149.338ZM149.338 49.3375V50.5466H148.129V49.3375H149.338ZM148.129 49.3375V50.5466H146.92V49.3375H148.129ZM148.129 50.5466V51.7557H146.92V50.5466H148.129ZM149.338 50.5466V51.7557H148.129V50.5466H149.338ZM150.548 60.2193V61.4284H149.338V60.2193H150.548ZM151.757 60.2193V61.4284H150.548V60.2193H151.757ZM152.966 60.2193V61.4284H151.757V60.2193H152.966ZM154.175 59.0103V60.2193H152.966V59.0103H154.175ZM155.384 57.8012V59.0103H154.175V57.8012H155.384ZM155.384 56.5921V57.8012H154.175V56.5921H155.384ZM155.384 52.9648V54.1739H154.175V52.9648H155.384ZM154.175 51.7557V52.9648H152.966V51.7557H154.175ZM152.966 50.5466V51.7557H151.757V50.5466H152.966ZM151.757 50.5466V51.7557H150.548V50.5466H151.757ZM150.548 50.5466V51.7557H149.338V50.5466H150.548ZM150.548 45.7103V46.9194H149.338V45.7103H150.548ZM151.757 45.7103V46.9194H150.548V45.7103H151.757ZM152.966 45.7103V46.9194H151.757V45.7103H152.966ZM154.175 45.7103V46.9194H152.966V45.7103H154.175ZM154.175 46.9194V48.1285H152.966V46.9194H154.175ZM154.175 48.1285V49.3375H152.966V48.1285H154.175ZM154.175 49.3375V50.5466H152.966V49.3375H154.175ZM152.966 49.3375V50.5466H151.757V49.3375H152.966ZM152.966 48.1285V49.3375H151.757V48.1285H152.966ZM151.757 48.1285V49.3375H150.548V48.1285H151.757ZM150.548 48.1285V49.3375H149.338V48.1285H150.548ZM150.548 46.9194V48.1285H149.338V46.9194H150.548ZM151.757 46.9194V48.1285H150.548V46.9194H151.757ZM152.966 46.9194V48.1285H151.757V46.9194H152.966ZM150.548 49.3375V50.5466H149.338V49.3375H150.548ZM151.757 49.3375V50.5466H150.548V49.3375H151.757ZM154.175 50.5466V51.7557H152.966V50.5466H154.175ZM155.384 51.7557V52.9648H154.175V51.7557H155.384ZM155.384 50.5466V51.7557H154.175V50.5466H155.384ZM155.384 49.3375V50.5466H154.175V49.3375H155.384ZM155.384 48.1285V49.3375H154.175V48.1285H155.384ZM155.384 46.9194V48.1285H154.175V46.9194H155.384ZM155.384 45.7103V46.9194H154.175V45.7103H155.384ZM155.384 59.0103V60.2193H154.175V59.0103H155.384ZM155.384 60.2193V61.4284H154.175V60.2193H155.384ZM155.384 61.4284V62.6375H154.175V61.4284H155.384ZM155.384 62.6375V63.8466H154.175V62.6375H155.384ZM154.175 62.6375V63.8466H152.966V62.6375H154.175ZM152.966 62.6375V63.8466H151.757V62.6375H152.966ZM151.757 62.6375V63.8466H150.548V62.6375H151.757ZM150.548 62.6375V63.8466H149.338V62.6375H150.548ZM150.548 61.4284V62.6375H149.338V61.4284H150.548ZM151.757 61.4284V62.6375H150.548V61.4284H151.757ZM152.966 61.4284V62.6375H151.757V61.4284H152.966ZM154.175 61.4284V62.6375H152.966V61.4284H154.175ZM154.175 60.2193V61.4284H152.966V60.2193H154.175ZM150.548 63.8466V65.0557H149.338V63.8466H150.548ZM151.757 63.8466V65.0557H150.548V63.8466H151.757ZM152.966 63.8466V65.0557H151.757V63.8466H152.966ZM154.175 63.8466V65.0557H152.966V63.8466H154.175ZM155.384 63.8466V65.0557H154.175V63.8466H155.384ZM155.384 65.0557V66.2648H154.175V65.0557H155.384ZM154.175 65.0557V66.2648H152.966V65.0557H154.175ZM152.966 65.0557V66.2648H151.757V65.0557H152.966ZM151.757 65.0557V66.2648H150.548V65.0557H151.757ZM150.548 65.0557V66.2648H149.338V65.0557H150.548ZM156.593 46.9194V48.1285H155.384V46.9194H156.593ZM157.802 46.9194V48.1285H156.593V46.9194H157.802ZM157.802 48.1285V49.3375H156.593V48.1285H157.802ZM159.011 48.1285V49.3375H157.802V48.1285H159.011ZM159.011 49.3375V50.5466H157.802V49.3375H159.011ZM159.011 50.5466V51.7557H157.802V50.5466H159.011ZM160.22 50.5466V51.7557H159.011V50.5466H160.22ZM160.22 51.7557V52.9648H159.011V51.7557H160.22ZM160.22 52.9648V54.1739H159.011V52.9648H160.22ZM160.22 56.5921V57.8012H159.011V56.5921H160.22ZM160.22 57.8012V59.0103H159.011V57.8012H160.22ZM160.22 59.0103V60.2193H159.011V59.0103H160.22ZM160.22 60.2193V61.4284H159.011V60.2193H160.22ZM159.011 61.4284V62.6375H157.802V61.4284H159.011ZM157.802 62.6375V63.8466H156.593V62.6375H157.802ZM156.593 63.8466V65.0557H155.384V63.8466H156.593ZM157.802 63.8466V65.0557H156.593V63.8466H157.802ZM156.593 65.0557V66.2648H155.384V65.0557H156.593ZM156.593 48.1285V49.3375H155.384V48.1285H156.593ZM156.593 49.3375V50.5466H155.384V49.3375H156.593ZM156.593 50.5466V51.7557H155.384V50.5466H156.593ZM156.593 51.7557V52.9648H155.384V51.7557H156.593ZM156.593 52.9648V54.1739H155.384V52.9648H156.593ZM156.593 56.5921V57.8012H155.384V56.5921H156.593ZM156.593 57.8012V59.0103H155.384V57.8012H156.593ZM156.593 59.0103V60.2193H155.384V59.0103H156.593ZM156.593 60.2193V61.4284H155.384V60.2193H156.593ZM156.593 61.4284V62.6375H155.384V61.4284H156.593ZM156.593 62.6375V63.8466H155.384V62.6375H156.593ZM157.802 61.4284V62.6375H156.593V61.4284H157.802ZM157.802 60.2193V61.4284H156.593V60.2193H157.802ZM157.802 59.0103V60.2193H156.593V59.0103H157.802ZM157.802 57.8012V59.0103H156.593V57.8012H157.802ZM157.802 56.5921V57.8012H156.593V56.5921H157.802ZM157.802 52.9648V54.1739H156.593V52.9648H157.802ZM157.802 51.7557V52.9648H156.593V51.7557H157.802ZM157.802 50.5466V51.7557H156.593V50.5466H157.802ZM157.802 49.3375V50.5466H156.593V49.3375H157.802ZM159.011 51.7557V52.9648H157.802V51.7557H159.011ZM159.011 52.9648V54.1739H157.802V52.9648H159.011ZM159.011 56.5921V57.8012H157.802V56.5921H159.011ZM159.011 57.8012V59.0103H157.802V57.8012H159.011ZM159.011 59.0103V60.2193H157.802V59.0103H159.011ZM159.011 60.2193V61.4284H157.802V60.2193H159.011ZM146.92 72.3102V73.5193H145.711V72.3102H146.92ZM146.92 73.5193V74.7284H145.711V73.5193H146.92ZM146.92 71.1011V72.3102H145.711V71.1011H146.92ZM155.384 54.1739V55.383H154.175V54.1739H155.384ZM156.593 54.1739V55.383H155.384V54.1739H156.593ZM157.802 54.1739V55.383H156.593V54.1739H157.802ZM159.011 54.1739V55.383H157.802V54.1739H159.011ZM160.22 54.1739V55.383H159.011V54.1739H160.22ZM160.22 55.383V56.5921H159.011V55.383H160.22ZM159.011 55.383V56.5921H157.802V55.383H159.011ZM157.802 55.383V56.5921H156.593V55.383H157.802ZM156.593 55.383V56.5921H155.384V55.383H156.593ZM155.384 55.383V56.5921H154.175V55.383H155.384ZM159.011 63.8466V65.0557H157.802V63.8466H159.011ZM160.22 65.0557V66.2648H159.011V65.0557H160.22ZM160.22 66.2648V67.4739H159.011V66.2648H160.22ZM160.22 67.4739V68.683H159.011V67.4739H160.22ZM160.22 68.683V69.8921H159.011V68.683H160.22ZM160.22 69.8921V71.1011H159.011V69.8921H160.22ZM160.22 71.1011V72.3102H159.011V71.1011H160.22ZM160.22 74.7284V75.9375H159.011V74.7284H160.22ZM160.22 73.5193V74.7284H159.011V73.5193H160.22ZM160.22 72.3102V73.5193H159.011V72.3102H160.22ZM159.011 74.7284V75.9375H157.802V74.7284H159.011ZM157.802 74.7284V75.9375H156.593V74.7284H157.802ZM156.593 74.7284V75.9375H155.384V74.7284H156.593ZM156.593 73.5193V74.7284H155.384V73.5193H156.593ZM156.593 72.3102V73.5193H155.384V72.3102H156.593ZM156.593 71.1011V72.3102H155.384V71.1011H156.593ZM156.593 69.8921V71.1011H155.384V69.8921H156.593ZM157.802 69.8921V71.1011H156.593V69.8921H157.802ZM157.802 68.683V69.8921H156.593V68.683H157.802ZM159.011 68.683V69.8921H157.802V68.683H159.011ZM159.011 69.8921V71.1011H157.802V69.8921H159.011ZM159.011 71.1011V72.3102H157.802V71.1011H159.011ZM159.011 72.3102V73.5193H157.802V72.3102H159.011ZM159.011 73.5193V74.7284H157.802V73.5193H159.011ZM157.802 73.5193V74.7284H156.593V73.5193H157.802ZM157.802 72.3102V73.5193H156.593V72.3102H157.802ZM157.802 71.1011V72.3102H156.593V71.1011H157.802ZM155.384 74.7284V75.9375H154.175V74.7284H155.384ZM155.384 73.5193V74.7284H154.175V73.5193H155.384ZM155.384 72.3102V73.5193H154.175V72.3102H155.384ZM155.384 71.1011V72.3102H154.175V71.1011H155.384ZM155.384 69.8921V71.1011H154.175V69.8921H155.384ZM155.384 68.683V69.8921H154.175V68.683H155.384ZM155.384 67.4739V68.683H154.175V67.4739H155.384ZM155.384 66.2648V67.4739H154.175V66.2648H155.384ZM156.593 66.2648V67.4739H155.384V66.2648H156.593ZM157.802 66.2648V67.4739H156.593V66.2648H157.802ZM159.011 66.2648V67.4739H157.802V66.2648H159.011ZM159.011 65.0557V66.2648H157.802V65.0557H159.011ZM157.802 65.0557V66.2648H156.593V65.0557H157.802ZM157.802 67.4739V68.683H156.593V67.4739H157.802ZM156.593 67.4739V68.683H155.384V67.4739H156.593ZM156.593 68.683V69.8921H155.384V68.683H156.593ZM159.011 67.4739V68.683H157.802V67.4739H159.011ZM172.335 74.7284V75.9375H171.126V74.7284H172.335ZM172.335 73.5193V74.7284H171.126V73.5193H172.335ZM172.335 72.3102V73.5193H171.126V72.3102H172.335ZM172.335 71.1011V72.3102H171.126V71.1011H172.335ZM172.335 69.8921V71.1011H171.126V69.8921H172.335ZM172.335 68.683V69.8921H171.126V68.683H172.335ZM172.335 67.4739V68.683H171.126V67.4739H172.335ZM172.335 66.2648V67.4739H171.126V66.2648H172.335ZM172.335 65.0557V66.2648H171.126V65.0557H172.335ZM172.335 63.8466V65.0557H171.126V63.8466H172.335ZM172.335 62.6375V63.8466H171.126V62.6375H172.335ZM172.335 61.4284V62.6375H171.126V61.4284H172.335ZM172.335 60.2193V61.4284H171.126V60.2193H172.335ZM172.335 59.0103V60.2193H171.126V59.0103H172.335ZM172.335 57.8012V59.0103H171.126V57.8012H172.335ZM173.544 57.8012V59.0103H172.335V57.8012H173.544ZM173.544 59.0103V60.2193H172.335V59.0103H173.544ZM173.544 60.2193V61.4284H172.335V60.2193H173.544ZM173.544 61.4284V62.6375H172.335V61.4284H173.544ZM173.544 62.6375V63.8466H172.335V62.6375H173.544ZM173.544 63.8466V65.0557H172.335V63.8466H173.544ZM173.544 65.0557V66.2648H172.335V65.0557H173.544ZM174.753 66.2648V67.4739H173.544V66.2648H174.753ZM174.753 67.4739V68.683H173.544V67.4739H174.753ZM174.753 68.683V69.8921H173.544V68.683H174.753ZM174.753 69.8921V71.1011H173.544V69.8921H174.753ZM174.753 71.1011V72.3102H173.544V71.1011H174.753ZM174.753 72.3102V73.5193H173.544V72.3102H174.753ZM174.753 73.5193V74.7284H173.544V73.5193H174.753ZM174.753 74.7284V75.9375H173.544V74.7284H174.753ZM175.962 74.7284V75.9375H174.753V74.7284H175.962ZM177.171 74.7284V75.9375H175.962V74.7284H177.171ZM177.171 73.5193V74.7284H175.962V73.5193H177.171ZM177.171 72.3102V73.5193H175.962V72.3102H177.171ZM177.171 71.1011V72.3102H175.962V71.1011H177.171ZM177.171 69.8921V71.1011H175.962V69.8921H177.171ZM177.171 68.683V69.8921H175.962V68.683H177.171ZM177.171 67.4739V68.683H175.962V67.4739H177.171ZM177.171 66.2648V67.4739H175.962V66.2648H177.171ZM175.962 66.2648V67.4739H174.753V66.2648H175.962ZM175.962 65.0557V66.2648H174.753V65.0557H175.962ZM175.962 67.4739V68.683H174.753V67.4739H175.962ZM175.962 68.683V69.8921H174.753V68.683H175.962ZM175.962 69.8921V71.1011H174.753V69.8921H175.962ZM175.962 71.1011V72.3102H174.753V71.1011H175.962ZM175.962 72.3102V73.5193H174.753V72.3102H175.962ZM175.962 73.5193V74.7284H174.753V73.5193H175.962ZM173.544 74.7284V75.9375H172.335V74.7284H173.544ZM173.544 73.5193V74.7284H172.335V73.5193H173.544ZM173.544 72.3102V73.5193H172.335V72.3102H173.544ZM173.544 71.1011V72.3102H172.335V71.1011H173.544ZM173.544 69.8921V71.1011H172.335V69.8921H173.544ZM173.544 68.683V69.8921H172.335V68.683H173.544ZM173.544 67.4739V68.683H172.335V67.4739H173.544ZM173.544 66.2648V67.4739H172.335V66.2648H173.544ZM172.335 45.7103V46.9194H171.126V45.7103H172.335ZM172.335 46.9194V48.1285H171.126V46.9194H172.335ZM172.335 48.1285V49.3375H171.126V48.1285H172.335ZM172.335 49.3375V50.5466H171.126V49.3375H172.335ZM172.335 50.5466V51.7557H171.126V50.5466H172.335ZM172.335 51.7557V52.9648H171.126V51.7557H172.335ZM172.335 52.9648V54.1739H171.126V52.9648H172.335ZM172.335 54.1739V55.383H171.126V54.1739H172.335ZM172.335 55.383V56.5921H171.126V55.383H172.335ZM172.335 56.5921V57.8012H171.126V56.5921H172.335ZM175.962 45.7103V46.9194H174.753V45.7103H175.962ZM175.962 46.9194V48.1285H174.753V46.9194H175.962ZM175.962 48.1285V49.3375H174.753V48.1285H175.962ZM175.962 49.3375V50.5466H174.753V49.3375H175.962ZM175.962 50.5466V51.7557H174.753V50.5466H175.962ZM175.962 51.7557V52.9648H174.753V51.7557H175.962ZM175.962 54.1739V55.383H174.753V54.1739H175.962ZM175.962 55.383V56.5921H174.753V55.383H175.962ZM175.962 56.5921V57.8012H174.753V56.5921H175.962ZM175.962 57.8012V59.0103H174.753V57.8012H175.962ZM175.962 59.0103V60.2193H174.753V59.0103H175.962ZM175.962 60.2193V61.4284H174.753V60.2193H175.962ZM175.962 61.4284V62.6375H174.753V61.4284H175.962ZM177.171 62.6375V63.8466H175.962V62.6375H177.171ZM177.171 63.8466V65.0557H175.962V63.8466H177.171ZM177.171 65.0557V66.2648H175.962V65.0557H177.171ZM177.171 61.4284V62.6375H175.962V61.4284H177.171ZM177.171 60.2193V61.4284H175.962V60.2193H177.171ZM177.171 59.0103V60.2193H175.962V59.0103H177.171ZM177.171 57.8012V59.0103H175.962V57.8012H177.171ZM177.171 56.5921V57.8012H175.962V56.5921H177.171ZM177.171 55.383V56.5921H175.962V55.383H177.171ZM177.171 54.1739V55.383H175.962V54.1739H177.171ZM177.171 52.9648V54.1739H175.962V52.9648H177.171ZM177.171 51.7557V52.9648H175.962V51.7557H177.171ZM177.171 50.5466V51.7557H175.962V50.5466H177.171ZM175.962 52.9648V54.1739H174.753V52.9648H175.962ZM177.171 49.3375V50.5466H175.962V49.3375H177.171ZM177.171 48.1285V49.3375H175.962V48.1285H177.171ZM177.171 46.9194V48.1285H175.962V46.9194H177.171ZM177.171 45.7103V46.9194H175.962V45.7103H177.171ZM174.753 45.7103V46.9194H173.544V45.7103H174.753ZM173.544 45.7103V46.9194H172.335V45.7103H173.544ZM173.544 46.9194V48.1285H172.335V46.9194H173.544ZM174.753 46.9194V48.1285H173.544V46.9194H174.753ZM174.753 48.1285V49.3375H173.544V48.1285H174.753ZM174.753 49.3375V50.5466H173.544V49.3375H174.753ZM174.753 50.5466V51.7557H173.544V50.5466H174.753ZM174.753 51.7557V52.9648H173.544V51.7557H174.753ZM174.753 52.9648V54.1739H173.544V52.9648H174.753ZM174.753 54.1739V55.383H173.544V54.1739H174.753ZM173.544 55.383V56.5921H172.335V55.383H173.544ZM173.544 56.5921V57.8012H172.335V56.5921H173.544ZM173.544 54.1739V55.383H172.335V54.1739H173.544ZM173.544 52.9648V54.1739H172.335V52.9648H173.544ZM173.544 51.7557V52.9648H172.335V51.7557H173.544ZM173.544 50.5466V51.7557H172.335V50.5466H173.544ZM173.544 49.3375V50.5466H172.335V49.3375H173.544ZM173.544 48.1285V49.3375H172.335V48.1285H173.544ZM174.753 55.383V56.5921H173.544V55.383H174.753ZM174.753 56.5921V57.8012H173.544V56.5921H174.753ZM174.753 57.8012V59.0103H173.544V57.8012H174.753ZM174.753 59.0103V60.2193H173.544V59.0103H174.753ZM174.753 60.2193V61.4284H173.544V60.2193H174.753ZM174.753 61.4284V62.6375H173.544V61.4284H174.753ZM174.753 62.6375V63.8466H173.544V62.6375H174.753ZM174.753 63.8466V65.0557H173.544V63.8466H174.753ZM174.753 65.0557V66.2648H173.544V65.0557H174.753ZM175.962 63.8466V65.0557H174.753V63.8466H175.962ZM175.962 62.6375V63.8466H174.753V62.6375H175.962ZM171.126 45.7103V46.9194H169.917V45.7103H171.126ZM169.917 45.7103V46.9194H168.708V45.7103H169.917ZM168.708 45.7103V46.9194H167.498V45.7103H168.708ZM167.498 45.7103V46.9194H166.289V45.7103H167.498ZM166.289 45.7103V46.9194H165.08V45.7103H166.289ZM166.289 46.9194V48.1285H165.08V46.9194H166.289ZM166.289 48.1285V49.3375H165.08V48.1285H166.289ZM167.498 46.9194V48.1285H166.289V46.9194H167.498ZM168.708 46.9194V48.1285H167.498V46.9194H168.708ZM169.917 46.9194V48.1285H168.708V46.9194H169.917ZM171.126 48.1285V49.3375H169.917V48.1285H171.126ZM171.126 46.9194V48.1285H169.917V46.9194H171.126ZM169.917 48.1285V49.3375H168.708V48.1285H169.917ZM168.708 48.1285V49.3375H167.498V48.1285H168.708ZM167.498 48.1285V49.3375H166.289V48.1285H167.498ZM178.38 45.7103V46.9194H177.171V45.7103H178.38ZM179.589 45.7103V46.9194H178.38V45.7103H179.589ZM180.798 45.7103V46.9194H179.589V45.7103H180.798ZM182.007 45.7103V46.9194H180.798V45.7103H182.007ZM183.217 45.7103V46.9194H182.007V45.7103H183.217ZM183.217 46.9194V48.1285H182.007V46.9194H183.217ZM182.007 46.9194V48.1285H180.798V46.9194H182.007ZM180.798 46.9194V48.1285H179.589V46.9194H180.798ZM179.589 46.9194V48.1285H178.38V46.9194H179.589ZM178.38 46.9194V48.1285H177.171V46.9194H178.38ZM178.38 48.1285V49.3375H177.171V48.1285H178.38ZM179.589 48.1285V49.3375H178.38V48.1285H179.589ZM180.798 48.1285V49.3375H179.589V48.1285H180.798ZM182.007 48.1285V49.3375H180.798V48.1285H182.007ZM183.217 48.1285V49.3375H182.007V48.1285H183.217ZM166.289 49.3375V50.5466H165.08V49.3375H166.289ZM166.289 50.5466V51.7557H165.08V50.5466H166.289ZM167.498 50.5466V51.7557H166.289V50.5466H167.498ZM168.708 50.5466V51.7557H167.498V50.5466H168.708ZM169.917 50.5466V51.7557H168.708V50.5466H169.917ZM171.126 50.5466V51.7557H169.917V50.5466H171.126ZM171.126 49.3375V50.5466H169.917V49.3375H171.126ZM169.917 49.3375V50.5466H168.708V49.3375H169.917ZM168.708 49.3375V50.5466H167.498V49.3375H168.708ZM167.498 49.3375V50.5466H166.289V49.3375H167.498ZM183.217 49.3375V50.5466H182.007V49.3375H183.217ZM183.217 50.5466V51.7557H182.007V50.5466H183.217ZM182.007 50.5466V51.7557H180.798V50.5466H182.007ZM180.798 50.5466V51.7557H179.589V50.5466H180.798ZM179.589 50.5466V51.7557H178.38V50.5466H179.589ZM178.38 50.5466V51.7557H177.171V50.5466H178.38ZM178.38 49.3375V50.5466H177.171V49.3375H178.38ZM179.589 49.3375V50.5466H178.38V49.3375H179.589ZM180.798 49.3375V50.5466H179.589V49.3375H180.798ZM182.007 49.3375V50.5466H180.798V49.3375H182.007ZM201.387 50.5466V51.7557H200.178V50.5466H201.387ZM202.596 50.5466V51.7557H201.387V50.5466H202.596ZM202.596 51.7557V52.9648H201.387V51.7557H202.596ZM202.596 52.9648V54.1739H201.387V52.9648H202.596ZM202.596 54.1739V55.383H201.387V54.1739H202.596ZM201.387 54.1739V55.383H200.178V54.1739H201.387ZM201.387 55.383V56.5921H200.178V55.383H201.387ZM201.387 52.9648V54.1739H200.178V52.9648H201.387ZM201.387 51.7557V52.9648H200.178V51.7557H201.387ZM202.596 55.383V56.5921H201.387V55.383H202.596ZM203.805 55.383V56.5921H202.596V55.383H203.805ZM203.805 54.1739V55.383H202.596V54.1739H203.805ZM203.805 52.9648V54.1739H202.596V52.9648H203.805ZM203.805 51.7557V52.9648H202.596V51.7557H203.805ZM205.014 51.7557V52.9648H203.805V51.7557H205.014ZM205.014 52.9648V54.1739H203.805V52.9648H205.014ZM205.014 54.1739V55.383H203.805V54.1739H205.014ZM205.014 55.383V56.5921H203.805V55.383H205.014ZM205.014 56.5921V57.8012H203.805V56.5921H205.014ZM203.805 56.5921V57.8012H202.596V56.5921H203.805ZM206.224 55.383V56.5921H205.014V55.383H206.224ZM206.224 54.1739V55.383H205.014V54.1739H206.224ZM206.224 52.9648V54.1739H205.014V52.9648H206.224ZM207.433 52.9648V54.1739H206.224V52.9648H207.433ZM207.433 54.1739V55.383H206.224V54.1739H207.433ZM207.433 55.383V56.5921H206.224V55.383H207.433ZM207.433 56.5921V57.8012H206.224V56.5921H207.433ZM206.224 56.5921V57.8012H205.014V56.5921H206.224ZM206.224 57.8012V59.0103H205.014V57.8012H206.224ZM207.433 57.8012V59.0103H206.224V57.8012H207.433ZM208.642 55.383V56.5921H207.433V55.383H208.642ZM208.642 54.1739V55.383H207.433V54.1739H208.642ZM209.851 54.1739V55.383H208.642V54.1739H209.851ZM209.851 55.383V56.5921H208.642V55.383H209.851ZM209.851 56.5921V57.8012H208.642V56.5921H209.851ZM209.851 57.8012V59.0103H208.642V57.8012H209.851ZM209.851 59.0103V60.2193H208.642V59.0103H209.851ZM208.642 59.0103V60.2193H207.433V59.0103H208.642ZM208.642 57.8012V59.0103H207.433V57.8012H208.642ZM208.642 56.5921V57.8012H207.433V56.5921H208.642ZM211.06 57.8012V59.0103H209.851V57.8012H211.06ZM211.06 59.0103V60.2193H209.851V59.0103H211.06ZM212.269 59.0103V60.2193H211.06V59.0103H212.269ZM212.269 57.8012V59.0103H211.06V57.8012H212.269ZM212.269 56.5921V57.8012H211.06V56.5921H212.269ZM212.269 55.383V56.5921H211.06V55.383H212.269ZM211.06 55.383V56.5921H209.851V55.383H211.06ZM211.06 56.5921V57.8012H209.851V56.5921H211.06ZM211.06 60.2193V61.4284H209.851V60.2193H211.06ZM211.06 61.4284V62.6375H209.851V61.4284H211.06ZM212.269 61.4284V62.6375H211.06V61.4284H212.269ZM212.269 62.6375V63.8466H211.06V62.6375H212.269ZM212.269 60.2193V61.4284H211.06V60.2193H212.269ZM211.06 62.6375V63.8466H209.851V62.6375H211.06ZM209.851 62.6375V63.8466H208.642V62.6375H209.851ZM206.224 67.4739V68.683H205.014V67.4739H206.224ZM207.433 67.4739V68.683H206.224V67.4739H207.433ZM207.433 66.2648V67.4739H206.224V66.2648H207.433ZM208.642 65.0557V66.2648H207.433V65.0557H208.642ZM208.642 63.8466V65.0557H207.433V63.8466H208.642ZM208.642 62.6375V63.8466H207.433V62.6375H208.642ZM207.433 65.0557V66.2648H206.224V65.0557H207.433ZM206.224 66.2648V67.4739H205.014V66.2648H206.224ZM206.224 65.0557V66.2648H205.014V65.0557H206.224ZM206.224 63.8466V65.0557H205.014V63.8466H206.224ZM207.433 63.8466V65.0557H206.224V63.8466H207.433ZM205.014 66.2648V67.4739H203.805V66.2648H205.014ZM205.014 65.0557V66.2648H203.805V65.0557H205.014ZM203.805 65.0557V66.2648H202.596V65.0557H203.805ZM203.805 66.2648V67.4739H202.596V66.2648H203.805ZM202.596 66.2648V67.4739H201.387V66.2648H202.596ZM202.596 67.4739V68.683H201.387V67.4739H202.596ZM201.387 67.4739V68.683H200.178V67.4739H201.387ZM201.387 66.2648V67.4739H200.178V66.2648H201.387ZM201.387 68.683V69.8921H200.178V68.683H201.387ZM201.387 69.8921V71.1011H200.178V69.8921H201.387ZM202.596 69.8921V71.1011H201.387V69.8921H202.596ZM202.596 71.1011V72.3102H201.387V71.1011H202.596ZM201.387 71.1011V72.3102H200.178V71.1011H201.387ZM203.805 69.8921V71.1011H202.596V69.8921H203.805ZM205.014 69.8921V71.1011H203.805V69.8921H205.014ZM205.014 68.683V69.8921H203.805V68.683H205.014ZM203.805 68.683V69.8921H202.596V68.683H203.805ZM202.596 68.683V69.8921H201.387V68.683H202.596ZM203.805 67.4739V68.683H202.596V67.4739H203.805ZM206.224 68.683V69.8921H205.014V68.683H206.224ZM205.014 67.4739V68.683H203.805V67.4739H205.014ZM207.433 68.683V69.8921H206.224V68.683H207.433ZM208.642 67.4739V68.683H207.433V67.4739H208.642ZM209.851 67.4739V68.683H208.642V67.4739H209.851ZM209.851 66.2648V67.4739H208.642V66.2648H209.851ZM208.642 66.2648V67.4739H207.433V66.2648H208.642ZM211.06 66.2648V67.4739H209.851V66.2648H211.06ZM212.269 66.2648V67.4739H211.06V66.2648H212.269ZM212.269 65.0557V66.2648H211.06V65.0557H212.269ZM212.269 63.8466V65.0557H211.06V63.8466H212.269ZM211.06 63.8466V65.0557H209.851V63.8466H211.06ZM209.851 63.8466V65.0557H208.642V63.8466H209.851ZM209.851 65.0557V66.2648H208.642V65.0557H209.851ZM211.06 65.0557V66.2648H209.851V65.0557H211.06ZM213.478 56.5921V57.8012H212.269V56.5921H213.478ZM214.687 56.5921V57.8012H213.478V56.5921H214.687ZM214.687 57.8012V59.0103H213.478V57.8012H214.687ZM215.896 57.8012V59.0103H214.687V57.8012H215.896ZM217.105 57.8012V59.0103H215.896V57.8012H217.105ZM217.105 59.0103V60.2193H215.896V59.0103H217.105ZM218.314 59.0103V60.2193H217.105V59.0103H218.314ZM219.523 59.0103V60.2193H218.314V59.0103H219.523ZM219.523 60.2193V61.4284H218.314V60.2193H219.523ZM219.523 61.4284V62.6375H218.314V61.4284H219.523ZM219.523 62.6375V63.8466H218.314V62.6375H219.523ZM218.314 62.6375V63.8466H217.105V62.6375H218.314ZM218.314 61.4284V62.6375H217.105V61.4284H218.314ZM218.314 60.2193V61.4284H217.105V60.2193H218.314ZM217.105 61.4284V62.6375H215.896V61.4284H217.105ZM217.105 62.6375V63.8466H215.896V62.6375H217.105ZM217.105 63.8466V65.0557H215.896V63.8466H217.105ZM215.896 63.8466V65.0557H214.687V63.8466H215.896ZM214.687 63.8466V65.0557H213.478V63.8466H214.687ZM214.687 65.0557V66.2648H213.478V65.0557H214.687ZM213.478 65.0557V66.2648H212.269V65.0557H213.478ZM213.478 63.8466V65.0557H212.269V63.8466H213.478ZM213.478 62.6375V63.8466H212.269V62.6375H213.478ZM214.687 62.6375V63.8466H213.478V62.6375H214.687ZM215.896 62.6375V63.8466H214.687V62.6375H215.896ZM215.896 61.4284V62.6375H214.687V61.4284H215.896ZM217.105 60.2193V61.4284H215.896V60.2193H217.105ZM215.896 60.2193V61.4284H214.687V60.2193H215.896ZM214.687 60.2193V61.4284H213.478V60.2193H214.687ZM214.687 61.4284V62.6375H213.478V61.4284H214.687ZM213.478 60.2193V61.4284H212.269V60.2193H213.478ZM213.478 59.0103V60.2193H212.269V59.0103H213.478ZM213.478 57.8012V59.0103H212.269V57.8012H213.478ZM214.687 59.0103V60.2193H213.478V59.0103H214.687ZM215.896 59.0103V60.2193H214.687V59.0103H215.896ZM213.478 61.4284V62.6375H212.269V61.4284H213.478ZM225.593 50.5466V51.7557H224.383V50.5466H225.593ZM226.802 50.5466V51.7557H225.593V50.5466H226.802ZM226.802 51.7557V52.9648H225.593V51.7557H226.802ZM226.802 52.9648V54.1739H225.593V52.9648H226.802ZM226.802 54.1739V55.383H225.593V54.1739H226.802ZM225.593 54.1739V55.383H224.383V54.1739H225.593ZM225.593 55.383V56.5921H224.383V55.383H225.593ZM225.593 52.9648V54.1739H224.383V52.9648H225.593ZM225.593 51.7557V52.9648H224.383V51.7557H225.593ZM226.802 55.383V56.5921H225.593V55.383H226.802ZM228.011 55.383V56.5921H226.802V55.383H228.011ZM228.011 54.1739V55.383H226.802V54.1739H228.011ZM228.011 52.9648V54.1739H226.802V52.9648H228.011ZM228.011 51.7557V52.9648H226.802V51.7557H228.011ZM229.22 51.7557V52.9648H228.011V51.7557H229.22ZM229.22 52.9648V54.1739H228.011V52.9648H229.22ZM229.22 54.1739V55.383H228.011V54.1739H229.22ZM229.22 55.383V56.5921H228.011V55.383H229.22ZM229.22 56.5921V57.8012H228.011V56.5921H229.22ZM228.011 56.5921V57.8012H226.802V56.5921H228.011ZM230.429 55.383V56.5921H229.22V55.383H230.429ZM230.429 54.1739V55.383H229.22V54.1739H230.429ZM230.429 52.9648V54.1739H229.22V52.9648H230.429ZM231.638 52.9648V54.1739H230.429V52.9648H231.638ZM231.638 54.1739V55.383H230.429V54.1739H231.638ZM231.638 55.383V56.5921H230.429V55.383H231.638ZM231.638 56.5921V57.8012H230.429V56.5921H231.638ZM230.429 56.5921V57.8012H229.22V56.5921H230.429ZM230.429 57.8012V59.0103H229.22V57.8012H230.429ZM231.638 57.8012V59.0103H230.429V57.8012H231.638ZM232.847 55.383V56.5921H231.638V55.383H232.847ZM232.847 54.1739V55.383H231.638V54.1739H232.847ZM234.056 54.1739V55.383H232.847V54.1739H234.056ZM234.056 55.383V56.5921H232.847V55.383H234.056ZM234.056 56.5921V57.8012H232.847V56.5921H234.056ZM234.056 57.8012V59.0103H232.847V57.8012H234.056ZM234.056 59.0103V60.2193H232.847V59.0103H234.056ZM232.847 59.0103V60.2193H231.638V59.0103H232.847ZM232.847 57.8012V59.0103H231.638V57.8012H232.847ZM232.847 56.5921V57.8012H231.638V56.5921H232.847ZM235.265 57.8012V59.0103H234.056V57.8012H235.265ZM235.265 59.0103V60.2193H234.056V59.0103H235.265ZM236.474 59.0103V60.2193H235.265V59.0103H236.474ZM236.474 57.8012V59.0103H235.265V57.8012H236.474ZM236.474 56.5921V57.8012H235.265V56.5921H236.474ZM236.474 55.383V56.5921H235.265V55.383H236.474ZM235.265 55.383V56.5921H234.056V55.383H235.265ZM235.265 56.5921V57.8012H234.056V56.5921H235.265ZM235.265 60.2193V61.4284H234.056V60.2193H235.265ZM235.265 61.4284V62.6375H234.056V61.4284H235.265ZM236.474 61.4284V62.6375H235.265V61.4284H236.474ZM236.474 62.6375V63.8466H235.265V62.6375H236.474ZM236.474 60.2193V61.4284H235.265V60.2193H236.474ZM235.265 62.6375V63.8466H234.056V62.6375H235.265ZM234.056 62.6375V63.8466H232.847V62.6375H234.056ZM230.429 67.4739V68.683H229.22V67.4739H230.429ZM231.638 67.4739V68.683H230.429V67.4739H231.638ZM231.638 66.2648V67.4739H230.429V66.2648H231.638ZM232.847 65.0557V66.2648H231.638V65.0557H232.847ZM232.847 63.8466V65.0557H231.638V63.8466H232.847ZM232.847 62.6375V63.8466H231.638V62.6375H232.847ZM231.638 65.0557V66.2648H230.429V65.0557H231.638ZM230.429 66.2648V67.4739H229.22V66.2648H230.429ZM230.429 65.0557V66.2648H229.22V65.0557H230.429ZM230.429 63.8466V65.0557H229.22V63.8466H230.429ZM231.638 63.8466V65.0557H230.429V63.8466H231.638ZM229.22 66.2648V67.4739H228.011V66.2648H229.22ZM229.22 65.0557V66.2648H228.011V65.0557H229.22ZM228.011 65.0557V66.2648H226.802V65.0557H228.011ZM228.011 66.2648V67.4739H226.802V66.2648H228.011ZM226.802 66.2648V67.4739H225.593V66.2648H226.802ZM226.802 67.4739V68.683H225.593V67.4739H226.802ZM225.593 67.4739V68.683H224.383V67.4739H225.593ZM225.593 66.2648V67.4739H224.383V66.2648H225.593ZM225.593 68.683V69.8921H224.383V68.683H225.593ZM225.593 69.8921V71.1011H224.383V69.8921H225.593ZM226.802 69.8921V71.1011H225.593V69.8921H226.802ZM226.802 71.1011V72.3102H225.593V71.1011H226.802ZM225.593 71.1011V72.3102H224.383V71.1011H225.593ZM228.011 69.8921V71.1011H226.802V69.8921H228.011ZM229.22 69.8921V71.1011H228.011V69.8921H229.22ZM229.22 68.683V69.8921H228.011V68.683H229.22ZM228.011 68.683V69.8921H226.802V68.683H228.011ZM226.802 68.683V69.8921H225.593V68.683H226.802ZM228.011 67.4739V68.683H226.802V67.4739H228.011ZM230.429 68.683V69.8921H229.22V68.683H230.429ZM229.22 67.4739V68.683H228.011V67.4739H229.22ZM231.638 68.683V69.8921H230.429V68.683H231.638ZM232.847 67.4739V68.683H231.638V67.4739H232.847ZM234.056 67.4739V68.683H232.847V67.4739H234.056ZM234.056 66.2648V67.4739H232.847V66.2648H234.056ZM232.847 66.2648V67.4739H231.638V66.2648H232.847ZM235.265 66.2648V67.4739H234.056V66.2648H235.265ZM236.474 66.2648V67.4739H235.265V66.2648H236.474ZM236.474 65.0557V66.2648H235.265V65.0557H236.474ZM236.474 63.8466V65.0557H235.265V63.8466H236.474ZM235.265 63.8466V65.0557H234.056V63.8466H235.265ZM234.056 63.8466V65.0557H232.847V63.8466H234.056ZM234.056 65.0557V66.2648H232.847V65.0557H234.056ZM235.265 65.0557V66.2648H234.056V65.0557H235.265ZM237.683 56.5921V57.8012H236.474V56.5921H237.683ZM238.893 56.5921V57.8012H237.683V56.5921H238.893ZM238.893 57.8012V59.0103H237.683V57.8012H238.893ZM240.102 57.8012V59.0103H238.893V57.8012H240.102ZM241.311 57.8012V59.0103H240.102V57.8012H241.311ZM241.311 59.0103V60.2193H240.102V59.0103H241.311ZM242.52 59.0103V60.2193H241.311V59.0103H242.52ZM243.729 59.0103V60.2193H242.52V59.0103H243.729ZM243.729 60.2193V61.4284H242.52V60.2193H243.729ZM243.729 61.4284V62.6375H242.52V61.4284H243.729ZM243.729 62.6375V63.8466H242.52V62.6375H243.729ZM242.52 62.6375V63.8466H241.311V62.6375H242.52ZM242.52 61.4284V62.6375H241.311V61.4284H242.52ZM242.52 60.2193V61.4284H241.311V60.2193H242.52ZM241.311 61.4284V62.6375H240.102V61.4284H241.311ZM241.311 62.6375V63.8466H240.102V62.6375H241.311ZM241.311 63.8466V65.0557H240.102V63.8466H241.311ZM240.102 63.8466V65.0557H238.893V63.8466H240.102ZM238.893 63.8466V65.0557H237.683V63.8466H238.893ZM238.893 65.0557V66.2648H237.683V65.0557H238.893ZM237.683 65.0557V66.2648H236.474V65.0557H237.683ZM237.683 63.8466V65.0557H236.474V63.8466H237.683ZM237.683 62.6375V63.8466H236.474V62.6375H237.683ZM238.893 62.6375V63.8466H237.683V62.6375H238.893ZM240.102 62.6375V63.8466H238.893V62.6375H240.102ZM240.102 61.4284V62.6375H238.893V61.4284H240.102ZM241.311 60.2193V61.4284H240.102V60.2193H241.311ZM240.102 60.2193V61.4284H238.893V60.2193H240.102ZM238.893 60.2193V61.4284H237.683V60.2193H238.893ZM238.893 61.4284V62.6375H237.683V61.4284H238.893ZM237.683 60.2193V61.4284H236.474V60.2193H237.683ZM237.683 59.0103V60.2193H236.474V59.0103H237.683ZM237.683 57.8012V59.0103H236.474V57.8012H237.683ZM238.893 59.0103V60.2193H237.683V59.0103H238.893ZM240.102 59.0103V60.2193H238.893V59.0103H240.102ZM237.683 61.4284V62.6375H236.474V61.4284H237.683Z" fill="#FF497C"/>
</svg>
